<svg width="1510" height="982" viewBox="0 0 1510 982" fill="none" xmlns="http://www.w3.org/2000/svg">
<g opacity="0.1">
<rect x="9.41351" y="0.0932" width="1491.01" height="93.0136" stroke="#454773" stroke-width="0.1864"/>
<rect x="9.41351" y="0.0932" width="93.0136" height="93.0136" stroke="#454773" stroke-width="0.1864"/>
<rect x="102.613" y="0.0932" width="93.0136" height="93.0136" fill="url(#paint0_linear_817_2057)" stroke="#454773" stroke-width="0.1864"/>
<rect x="195.812" y="0.0932" width="93.0136" height="93.0136" stroke="#454773" stroke-width="0.1864"/>
<rect x="289.015" y="0.0932" width="93.0136" height="93.0136" stroke="#454773" stroke-width="0.1864"/>
<rect x="382.214" y="0.0932" width="93.0136" height="93.0136" stroke="#454773" stroke-width="0.1864"/>
<rect x="475.414" y="0.0932" width="93.0136" height="93.0136" stroke="#454773" stroke-width="0.1864"/>
<rect x="568.613" y="0.0932" width="93.0136" height="93.0136" stroke="#454773" stroke-width="0.1864"/>
<rect x="661.812" y="0.0932" width="93.0136" height="93.0136" stroke="#454773" stroke-width="0.1864"/>
<rect x="755.015" y="0.0932" width="93.0136" height="93.0136" stroke="#454773" stroke-width="0.1864"/>
<rect x="848.214" y="0.0932" width="93.0136" height="93.0136" stroke="#454773" stroke-width="0.1864"/>
<rect x="941.414" y="0.0932" width="93.0136" height="93.0136" stroke="#454773" stroke-width="0.1864"/>
<rect x="1034.61" y="0.0932" width="93.0136" height="93.0136" stroke="#454773" stroke-width="0.1864"/>
<rect x="1127.81" y="0.0932" width="93.0136" height="93.0136" stroke="#454773" stroke-width="0.1864"/>
<rect x="1221.02" y="0.0932" width="93.0136" height="93.0136" stroke="#454773" stroke-width="0.1864"/>
<rect x="1314.21" y="0.0932" width="93.0136" height="93.0136" fill="url(#paint1_linear_817_2057)" stroke="#454773" stroke-width="0.1864"/>
<rect x="1407.41" y="0.0932" width="93.0136" height="93.0136" stroke="#454773" stroke-width="0.1864"/>
<rect x="9.41351" y="93.2934" width="1491.01" height="93.0136" stroke="#454773" stroke-width="0.1864"/>
<rect x="9.41351" y="93.2934" width="93.0136" height="93.0136" stroke="#454773" stroke-width="0.1864"/>
<rect x="102.613" y="93.2934" width="93.0136" height="93.0136" stroke="#454773" stroke-width="0.1864"/>
<rect x="195.812" y="93.2934" width="93.0136" height="93.0136" fill="url(#paint2_linear_817_2057)" stroke="#454773" stroke-width="0.1864"/>
<rect x="289.015" y="93.2934" width="93.0136" height="93.0136" stroke="#454773" stroke-width="0.1864"/>
<rect x="382.214" y="93.2934" width="93.0136" height="93.0136" stroke="#454773" stroke-width="0.1864"/>
<rect x="475.414" y="93.2934" width="93.0136" height="93.0136" stroke="#454773" stroke-width="0.1864"/>
<rect x="568.613" y="93.2934" width="93.0136" height="93.0136" stroke="#454773" stroke-width="0.1864"/>
<rect x="661.812" y="93.2934" width="93.0136" height="93.0136" stroke="#454773" stroke-width="0.1864"/>
<rect x="755.015" y="93.2934" width="93.0136" height="93.0136" stroke="#454773" stroke-width="0.1864"/>
<rect x="848.214" y="93.2934" width="93.0136" height="93.0136" stroke="#454773" stroke-width="0.1864"/>
<rect x="941.414" y="93.2934" width="93.0136" height="93.0136" stroke="#454773" stroke-width="0.1864"/>
<rect x="1034.61" y="93.2934" width="93.0136" height="93.0136" stroke="#454773" stroke-width="0.1864"/>
<rect x="1127.81" y="93.2934" width="93.0136" height="93.0136" stroke="#454773" stroke-width="0.1864"/>
<rect x="1221.02" y="93.2934" width="93.0136" height="93.0136" fill="url(#paint3_linear_817_2057)" stroke="#454773" stroke-width="0.1864"/>
<rect x="1314.21" y="93.2934" width="93.0136" height="93.0136" stroke="#454773" stroke-width="0.1864"/>
<rect x="1407.41" y="93.2934" width="93.0136" height="93.0136" stroke="#454773" stroke-width="0.1864"/>
<rect x="9.41351" y="186.493" width="1491.01" height="93.0136" stroke="#454773" stroke-width="0.1864"/>
<rect x="9.41351" y="186.493" width="93.0136" height="93.0136" stroke="#454773" stroke-width="0.1864"/>
<rect x="102.613" y="186.493" width="93.0136" height="93.0136" stroke="#454773" stroke-width="0.1864"/>
<rect x="195.812" y="186.493" width="93.0136" height="93.0136" stroke="#454773" stroke-width="0.1864"/>
<rect x="289.015" y="186.493" width="93.0136" height="93.0136" fill="url(#paint4_linear_817_2057)" stroke="#454773" stroke-width="0.1864"/>
<rect x="382.214" y="186.493" width="93.0136" height="93.0136" stroke="#454773" stroke-width="0.1864"/>
<rect x="475.414" y="186.493" width="93.0136" height="93.0136" stroke="#454773" stroke-width="0.1864"/>
<rect x="568.613" y="186.493" width="93.0136" height="93.0136" stroke="#454773" stroke-width="0.1864"/>
<rect x="661.812" y="186.493" width="93.0136" height="93.0136" stroke="#454773" stroke-width="0.1864"/>
<rect x="755.015" y="186.493" width="93.0136" height="93.0136" stroke="#454773" stroke-width="0.1864"/>
<rect x="848.214" y="186.493" width="93.0136" height="93.0136" stroke="#454773" stroke-width="0.1864"/>
<rect x="941.414" y="186.493" width="93.0136" height="93.0136" stroke="#454773" stroke-width="0.1864"/>
<rect x="1034.61" y="186.493" width="93.0136" height="93.0136" stroke="#454773" stroke-width="0.1864"/>
<rect x="1127.81" y="186.493" width="93.0136" height="93.0136" fill="url(#paint5_linear_817_2057)" stroke="#454773" stroke-width="0.1864"/>
<rect x="1221.02" y="186.493" width="93.0136" height="93.0136" stroke="#454773" stroke-width="0.1864"/>
<rect x="1314.21" y="186.493" width="93.0136" height="93.0136" stroke="#454773" stroke-width="0.1864"/>
<rect x="1407.41" y="186.493" width="93.0136" height="93.0136" stroke="#454773" stroke-width="0.1864"/>
<rect x="9.41351" y="279.693" width="1491.01" height="93.0136" stroke="#454773" stroke-width="0.1864"/>
<rect x="9.41351" y="279.693" width="93.0136" height="93.0136" stroke="#454773" stroke-width="0.1864"/>
<rect x="102.613" y="279.693" width="93.0136" height="93.0136" stroke="#454773" stroke-width="0.1864"/>
<rect x="195.812" y="279.693" width="93.0136" height="93.0136" stroke="#454773" stroke-width="0.1864"/>
<rect x="289.015" y="279.693" width="93.0136" height="93.0136" stroke="#454773" stroke-width="0.1864"/>
<rect x="382.214" y="279.693" width="93.0136" height="93.0136" fill="url(#paint6_linear_817_2057)" stroke="#454773" stroke-width="0.1864"/>
<rect x="475.414" y="279.693" width="93.0136" height="93.0136" stroke="#454773" stroke-width="0.1864"/>
<rect x="568.613" y="279.693" width="93.0136" height="93.0136" stroke="#454773" stroke-width="0.1864"/>
<rect x="661.812" y="279.693" width="93.0136" height="93.0136" stroke="#454773" stroke-width="0.1864"/>
<rect x="755.015" y="279.693" width="93.0136" height="93.0136" stroke="#454773" stroke-width="0.1864"/>
<rect x="848.214" y="279.693" width="93.0136" height="93.0136" stroke="#454773" stroke-width="0.1864"/>
<rect x="941.414" y="279.693" width="93.0136" height="93.0136" stroke="#454773" stroke-width="0.1864"/>
<rect x="1034.61" y="279.693" width="93.0136" height="93.0136" fill="url(#paint7_linear_817_2057)" stroke="#454773" stroke-width="0.1864"/>
<rect x="1127.81" y="279.693" width="93.0136" height="93.0136" stroke="#454773" stroke-width="0.1864"/>
<rect x="1221.02" y="279.693" width="93.0136" height="93.0136" stroke="#454773" stroke-width="0.1864"/>
<rect x="1314.21" y="279.693" width="93.0136" height="93.0136" stroke="#454773" stroke-width="0.1864"/>
<rect x="1407.41" y="279.693" width="93.0136" height="93.0136" stroke="#454773" stroke-width="0.1864"/>
<rect x="9.41351" y="372.893" width="1491.01" height="93.0136" stroke="#454773" stroke-width="0.1864"/>
<rect x="9.41351" y="372.893" width="93.0136" height="93.0136" stroke="#454773" stroke-width="0.1864"/>
<rect x="102.613" y="372.893" width="93.0136" height="93.0136" stroke="#454773" stroke-width="0.1864"/>
<rect x="195.812" y="372.893" width="93.0136" height="93.0136" stroke="#454773" stroke-width="0.1864"/>
<rect x="289.015" y="372.893" width="93.0136" height="93.0136" stroke="#454773" stroke-width="0.1864"/>
<rect x="382.214" y="372.893" width="93.0136" height="93.0136" stroke="#454773" stroke-width="0.1864"/>
<rect x="475.414" y="372.893" width="93.0136" height="93.0136" fill="url(#paint8_linear_817_2057)" stroke="#454773" stroke-width="0.1864"/>
<rect x="568.613" y="372.893" width="93.0136" height="93.0136" stroke="#454773" stroke-width="0.1864"/>
<rect x="661.812" y="372.893" width="93.0136" height="93.0136" stroke="#454773" stroke-width="0.1864"/>
<rect x="755.015" y="372.893" width="93.0136" height="93.0136" stroke="#454773" stroke-width="0.1864"/>
<rect x="848.214" y="372.893" width="93.0136" height="93.0136" stroke="#454773" stroke-width="0.1864"/>
<rect x="941.414" y="372.893" width="93.0136" height="93.0136" fill="url(#paint9_linear_817_2057)" stroke="#454773" stroke-width="0.1864"/>
<rect x="1034.61" y="372.893" width="93.0136" height="93.0136" stroke="#454773" stroke-width="0.1864"/>
<rect x="1127.81" y="372.893" width="93.0136" height="93.0136" stroke="#454773" stroke-width="0.1864"/>
<rect x="1221.02" y="372.893" width="93.0136" height="93.0136" stroke="#454773" stroke-width="0.1864"/>
<rect x="1314.21" y="372.893" width="93.0136" height="93.0136" stroke="#454773" stroke-width="0.1864"/>
<rect x="1407.41" y="372.893" width="93.0136" height="93.0136" stroke="#454773" stroke-width="0.1864"/>
<rect x="9.41351" y="466.093" width="1491.01" height="93.0136" stroke="#454773" stroke-width="0.1864"/>
<rect x="9.41351" y="466.093" width="93.0136" height="93.0136" stroke="#454773" stroke-width="0.1864"/>
<rect x="102.613" y="466.093" width="93.0136" height="93.0136" stroke="#454773" stroke-width="0.1864"/>
<rect x="195.812" y="466.093" width="93.0136" height="93.0136" stroke="#454773" stroke-width="0.1864"/>
<rect x="289.015" y="466.093" width="93.0136" height="93.0136" stroke="#454773" stroke-width="0.1864"/>
<rect x="382.214" y="466.093" width="93.0136" height="93.0136" stroke="#454773" stroke-width="0.1864"/>
<rect x="475.414" y="466.093" width="93.0136" height="93.0136" stroke="#454773" stroke-width="0.1864"/>
<rect x="568.613" y="466.093" width="93.0136" height="93.0136" fill="url(#paint10_linear_817_2057)" stroke="#454773" stroke-width="0.1864"/>
<rect x="661.812" y="466.093" width="93.0136" height="93.0136" stroke="#454773" stroke-width="0.1864"/>
<rect x="755.015" y="466.093" width="93.0136" height="93.0136" stroke="#454773" stroke-width="0.1864"/>
<rect x="848.214" y="466.093" width="93.0136" height="93.0136" fill="url(#paint11_linear_817_2057)" stroke="#454773" stroke-width="0.1864"/>
<rect x="941.414" y="466.093" width="93.0136" height="93.0136" stroke="#454773" stroke-width="0.1864"/>
<rect x="1034.61" y="466.093" width="93.0136" height="93.0136" stroke="#454773" stroke-width="0.1864"/>
<rect x="1127.81" y="466.093" width="93.0136" height="93.0136" stroke="#454773" stroke-width="0.1864"/>
<rect x="1221.02" y="466.093" width="93.0136" height="93.0136" stroke="#454773" stroke-width="0.1864"/>
<rect x="1314.21" y="466.093" width="93.0136" height="93.0136" stroke="#454773" stroke-width="0.1864"/>
<rect x="1407.41" y="466.093" width="93.0136" height="93.0136" stroke="#454773" stroke-width="0.1864"/>
<rect x="9.41351" y="559.293" width="1491.01" height="93.0136" stroke="#454773" stroke-width="0.1864"/>
<rect x="9.41351" y="559.293" width="93.0136" height="93.0136" stroke="#454773" stroke-width="0.1864"/>
<rect x="102.613" y="559.293" width="93.0136" height="93.0136" fill="url(#paint12_linear_817_2057)" stroke="#454773" stroke-width="0.1864"/>
<rect x="195.812" y="559.293" width="93.0136" height="93.0136" stroke="#454773" stroke-width="0.1864"/>
<rect x="289.015" y="559.293" width="93.0136" height="93.0136" stroke="#454773" stroke-width="0.1864"/>
<rect x="382.214" y="559.293" width="93.0136" height="93.0136" stroke="#454773" stroke-width="0.1864"/>
<rect x="475.414" y="559.293" width="93.0136" height="93.0136" stroke="#454773" stroke-width="0.1864"/>
<rect x="568.613" y="559.293" width="93.0136" height="93.0136" stroke="#454773" stroke-width="0.1864"/>
<rect x="661.812" y="559.293" width="93.0136" height="93.0136" fill="url(#paint13_linear_817_2057)" stroke="#454773" stroke-width="0.1864"/>
<rect x="755.015" y="559.293" width="93.0136" height="93.0136" fill="url(#paint14_linear_817_2057)" stroke="#454773" stroke-width="0.1864"/>
<rect x="848.214" y="559.293" width="93.0136" height="93.0136" stroke="#454773" stroke-width="0.1864"/>
<rect x="941.414" y="559.293" width="93.0136" height="93.0136" stroke="#454773" stroke-width="0.1864"/>
<rect x="1034.61" y="559.293" width="93.0136" height="93.0136" stroke="#454773" stroke-width="0.1864"/>
<rect x="1127.81" y="559.293" width="93.0136" height="93.0136" stroke="#454773" stroke-width="0.1864"/>
<rect x="1221.02" y="559.293" width="93.0136" height="93.0136" stroke="#454773" stroke-width="0.1864"/>
<rect x="1314.21" y="559.293" width="93.0136" height="93.0136" fill="url(#paint15_linear_817_2057)" stroke="#454773" stroke-width="0.1864"/>
<rect x="1407.41" y="559.293" width="93.0136" height="93.0136" stroke="#454773" stroke-width="0.1864"/>
<rect x="9.41351" y="652.493" width="1491.01" height="93.0136" stroke="#454773" stroke-width="0.1864"/>
<rect x="9.41351" y="652.493" width="93.0136" height="93.0136" stroke="#454773" stroke-width="0.1864"/>
<rect x="102.613" y="652.493" width="93.0136" height="93.0136" stroke="#454773" stroke-width="0.1864"/>
<rect x="195.812" y="652.493" width="93.0136" height="93.0136" stroke="#454773" stroke-width="0.1864"/>
<rect x="289.015" y="652.493" width="93.0136" height="93.0136" stroke="#454773" stroke-width="0.1864"/>
<rect x="382.214" y="652.493" width="93.0136" height="93.0136" stroke="#454773" stroke-width="0.1864"/>
<rect x="475.414" y="652.493" width="93.0136" height="93.0136" stroke="#454773" stroke-width="0.1864"/>
<rect x="568.613" y="652.493" width="93.0136" height="93.0136" fill="url(#paint16_linear_817_2057)" stroke="#454773" stroke-width="0.1864"/>
<rect x="661.812" y="652.493" width="93.0136" height="93.0136" stroke="#454773" stroke-width="0.1864"/>
<rect x="755.015" y="652.493" width="93.0136" height="93.0136" stroke="#454773" stroke-width="0.1864"/>
<rect x="848.214" y="652.493" width="93.0136" height="93.0136" fill="url(#paint17_linear_817_2057)" stroke="#454773" stroke-width="0.1864"/>
<rect x="941.414" y="652.493" width="93.0136" height="93.0136" stroke="#454773" stroke-width="0.1864"/>
<rect x="1034.61" y="652.493" width="93.0136" height="93.0136" stroke="#454773" stroke-width="0.1864"/>
<rect x="1127.81" y="652.493" width="93.0136" height="93.0136" stroke="#454773" stroke-width="0.1864"/>
<rect x="1221.02" y="652.493" width="93.0136" height="93.0136" stroke="#454773" stroke-width="0.1864"/>
<rect x="1314.21" y="652.493" width="93.0136" height="93.0136" stroke="#454773" stroke-width="0.1864"/>
<rect x="1407.41" y="652.493" width="93.0136" height="93.0136" stroke="#454773" stroke-width="0.1864"/>
<rect x="9.41351" y="745.693" width="1491.01" height="93.0136" stroke="#454773" stroke-width="0.1864"/>
<rect x="9.41351" y="745.693" width="93.0136" height="93.0136" stroke="#454773" stroke-width="0.1864"/>
<rect x="102.613" y="745.693" width="93.0136" height="93.0136" stroke="#454773" stroke-width="0.1864"/>
<rect x="195.812" y="745.693" width="93.0136" height="93.0136" stroke="#454773" stroke-width="0.1864"/>
<rect x="289.015" y="745.693" width="93.0136" height="93.0136" stroke="#454773" stroke-width="0.1864"/>
<rect x="382.214" y="745.693" width="93.0136" height="93.0136" stroke="#454773" stroke-width="0.1864"/>
<rect x="475.414" y="745.693" width="93.0136" height="93.0136" stroke="#454773" stroke-width="0.1864"/>
<rect x="568.613" y="745.693" width="93.0136" height="93.0136" stroke="#454773" stroke-width="0.1864"/>
<rect x="661.812" y="745.693" width="93.0136" height="93.0136" stroke="#454773" stroke-width="0.1864"/>
<rect x="755.015" y="745.693" width="93.0136" height="93.0136" stroke="#454773" stroke-width="0.1864"/>
<rect x="848.214" y="745.693" width="93.0136" height="93.0136" stroke="#454773" stroke-width="0.1864"/>
<rect x="941.414" y="745.693" width="93.0136" height="93.0136" stroke="#454773" stroke-width="0.1864"/>
<rect x="1034.61" y="745.693" width="93.0136" height="93.0136" stroke="#454773" stroke-width="0.1864"/>
<rect x="1127.81" y="745.693" width="93.0136" height="93.0136" stroke="#454773" stroke-width="0.1864"/>
<rect x="1221.02" y="745.693" width="93.0136" height="93.0136" stroke="#454773" stroke-width="0.1864"/>
<rect x="1314.21" y="745.693" width="93.0136" height="93.0136" stroke="#454773" stroke-width="0.1864"/>
<rect x="1407.41" y="745.693" width="93.0136" height="93.0136" stroke="#454773" stroke-width="0.1864"/>
<rect x="9.41351" y="838.893" width="1491.01" height="93.0136" stroke="#454773" stroke-width="0.1864"/>
<rect x="9.41351" y="838.893" width="93.0136" height="93.0136" stroke="#454773" stroke-width="0.1864"/>
<rect x="102.613" y="838.893" width="93.0136" height="93.0136" stroke="#454773" stroke-width="0.1864"/>
<rect x="195.812" y="838.893" width="93.0136" height="93.0136" stroke="#454773" stroke-width="0.1864"/>
<rect x="289.015" y="838.893" width="93.0136" height="93.0136" stroke="#454773" stroke-width="0.1864"/>
<rect x="382.214" y="838.893" width="93.0136" height="93.0136" stroke="#454773" stroke-width="0.1864"/>
<rect x="475.414" y="838.893" width="93.0136" height="93.0136" stroke="#454773" stroke-width="0.1864"/>
<rect x="568.613" y="838.893" width="93.0136" height="93.0136" stroke="#454773" stroke-width="0.1864"/>
<rect x="661.812" y="838.893" width="93.0136" height="93.0136" stroke="#454773" stroke-width="0.1864"/>
<rect x="755.015" y="838.893" width="93.0136" height="93.0136" stroke="#454773" stroke-width="0.1864"/>
<rect x="848.214" y="838.893" width="93.0136" height="93.0136" stroke="#454773" stroke-width="0.1864"/>
<rect x="941.414" y="838.893" width="93.0136" height="93.0136" stroke="#454773" stroke-width="0.1864"/>
<rect x="1034.61" y="838.893" width="93.0136" height="93.0136" stroke="#454773" stroke-width="0.1864"/>
<rect x="1127.81" y="838.893" width="93.0136" height="93.0136" stroke="#454773" stroke-width="0.1864"/>
<rect x="1221.02" y="838.893" width="93.0136" height="93.0136" stroke="#454773" stroke-width="0.1864"/>
<rect x="1314.21" y="838.893" width="93.0136" height="93.0136" stroke="#454773" stroke-width="0.1864"/>
<rect x="1407.41" y="838.893" width="93.0136" height="93.0136" stroke="#454773" stroke-width="0.1864"/>
</g>
<defs>
<linearGradient id="paint0_linear_817_2057" x1="113.238" y1="1.1888e-07" x2="149.12" y2="93.2" gradientUnits="userSpaceOnUse">
<stop stop-color="#454773"/>
<stop offset="1" stop-color="#D9D9D9" stop-opacity="0"/>
</linearGradient>
<linearGradient id="paint1_linear_817_2057" x1="1324.84" y1="1.1888e-07" x2="1360.72" y2="93.2" gradientUnits="userSpaceOnUse">
<stop stop-color="#454773"/>
<stop offset="1" stop-color="#D9D9D9" stop-opacity="0"/>
</linearGradient>
<linearGradient id="paint2_linear_817_2057" x1="206.437" y1="93.2002" x2="242.319" y2="186.4" gradientUnits="userSpaceOnUse">
<stop stop-color="#454773"/>
<stop offset="1" stop-color="#D9D9D9" stop-opacity="0"/>
</linearGradient>
<linearGradient id="paint3_linear_817_2057" x1="1231.64" y1="93.2002" x2="1267.52" y2="186.4" gradientUnits="userSpaceOnUse">
<stop stop-color="#454773"/>
<stop offset="1" stop-color="#D9D9D9" stop-opacity="0"/>
</linearGradient>
<linearGradient id="paint4_linear_817_2057" x1="299.64" y1="186.4" x2="335.522" y2="279.6" gradientUnits="userSpaceOnUse">
<stop stop-color="#454773"/>
<stop offset="1" stop-color="#D9D9D9" stop-opacity="0"/>
</linearGradient>
<linearGradient id="paint5_linear_817_2057" x1="1138.44" y1="186.4" x2="1174.32" y2="279.6" gradientUnits="userSpaceOnUse">
<stop stop-color="#454773"/>
<stop offset="1" stop-color="#D9D9D9" stop-opacity="0"/>
</linearGradient>
<linearGradient id="paint6_linear_817_2057" x1="392.839" y1="279.6" x2="428.721" y2="372.8" gradientUnits="userSpaceOnUse">
<stop stop-color="#454773"/>
<stop offset="1" stop-color="#D9D9D9" stop-opacity="0"/>
</linearGradient>
<linearGradient id="paint7_linear_817_2057" x1="1045.24" y1="279.6" x2="1081.12" y2="372.8" gradientUnits="userSpaceOnUse">
<stop stop-color="#454773"/>
<stop offset="1" stop-color="#D9D9D9" stop-opacity="0"/>
</linearGradient>
<linearGradient id="paint8_linear_817_2057" x1="486.038" y1="372.8" x2="521.92" y2="466" gradientUnits="userSpaceOnUse">
<stop stop-color="#454773"/>
<stop offset="1" stop-color="#D9D9D9" stop-opacity="0"/>
</linearGradient>
<linearGradient id="paint9_linear_817_2057" x1="952.038" y1="372.8" x2="987.92" y2="466" gradientUnits="userSpaceOnUse">
<stop stop-color="#454773"/>
<stop offset="1" stop-color="#D9D9D9" stop-opacity="0"/>
</linearGradient>
<linearGradient id="paint10_linear_817_2057" x1="579.238" y1="466" x2="615.12" y2="559.2" gradientUnits="userSpaceOnUse">
<stop stop-color="#454773"/>
<stop offset="1" stop-color="#D9D9D9" stop-opacity="0"/>
</linearGradient>
<linearGradient id="paint11_linear_817_2057" x1="858.839" y1="466" x2="894.721" y2="559.2" gradientUnits="userSpaceOnUse">
<stop stop-color="#454773"/>
<stop offset="1" stop-color="#D9D9D9" stop-opacity="0"/>
</linearGradient>
<linearGradient id="paint12_linear_817_2057" x1="113.238" y1="559.2" x2="149.12" y2="652.4" gradientUnits="userSpaceOnUse">
<stop stop-color="#454773"/>
<stop offset="1" stop-color="#D9D9D9" stop-opacity="0"/>
</linearGradient>
<linearGradient id="paint13_linear_817_2057" x1="672.437" y1="559.2" x2="708.319" y2="652.4" gradientUnits="userSpaceOnUse">
<stop stop-color="#454773"/>
<stop offset="1" stop-color="#D9D9D9" stop-opacity="0"/>
</linearGradient>
<linearGradient id="paint14_linear_817_2057" x1="765.64" y1="559.2" x2="801.522" y2="652.4" gradientUnits="userSpaceOnUse">
<stop stop-color="#454773"/>
<stop offset="1" stop-color="#D9D9D9" stop-opacity="0"/>
</linearGradient>
<linearGradient id="paint15_linear_817_2057" x1="1324.84" y1="559.2" x2="1360.72" y2="652.4" gradientUnits="userSpaceOnUse">
<stop stop-color="#454773"/>
<stop offset="1" stop-color="#D9D9D9" stop-opacity="0"/>
</linearGradient>
<linearGradient id="paint16_linear_817_2057" x1="579.238" y1="652.4" x2="615.12" y2="745.6" gradientUnits="userSpaceOnUse">
<stop stop-color="#454773"/>
<stop offset="1" stop-color="#D9D9D9" stop-opacity="0"/>
</linearGradient>
<linearGradient id="paint17_linear_817_2057" x1="858.839" y1="652.4" x2="894.721" y2="745.6" gradientUnits="userSpaceOnUse">
<stop stop-color="#454773"/>
<stop offset="1" stop-color="#D9D9D9" stop-opacity="0"/>
</linearGradient>
</defs>
</svg>
