<svg width="40" height="40" viewBox="0 0 40 40" fill="none" xmlns="http://www.w3.org/2000/svg">
<rect width="40" height="40" rx="20" fill="#CDFEED"/>
<path fill-rule="evenodd" clip-rule="evenodd" d="M25.8335 27.5C27.6745 27.5 29.1669 26.0076 29.1669 24.1667V16.6856C29.1672 16.6728 29.1672 16.66 29.1669 16.6473V15.8333C29.1669 13.9924 27.6745 12.5 25.8335 12.5H14.1669C12.3259 12.5 10.8335 13.9924 10.8335 15.8333V16.6473C10.8332 16.6601 10.8332 16.6728 10.8335 16.6856V24.1667C10.8335 26.0076 12.3259 27.5 14.1669 27.5H25.8335ZM12.5002 24.1667C12.5002 25.0871 13.2464 25.8333 14.1669 25.8333H25.8335C26.754 25.8333 27.5002 25.0871 27.5002 24.1667V17.8975L21.2382 20.4023C20.4435 20.7202 19.5569 20.7202 18.7622 20.4023L12.5002 17.8975V24.1667ZM20.6192 18.8549L27.5002 16.1025V15.8333C27.5002 14.9129 26.754 14.1667 25.8335 14.1667H14.1669C13.2464 14.1667 12.5002 14.9129 12.5002 15.8333V16.1025L19.3812 18.8549C19.7786 19.0138 20.2218 19.0138 20.6192 18.8549Z" fill="#003321"/>
</svg>
