<svg width="118" height="118" viewBox="0 0 118 118" fill="none" xmlns="http://www.w3.org/2000/svg">
<rect x="0.422852" y="0.480469" width="117.308" height="117.308" rx="58.6538" fill="#C9BEF6"/>
<rect x="19.1919" y="19.25" width="78.5962" height="78.5962" rx="39.2981" fill="url(#paint0_linear_818_5350)"/>
<path d="M62.6143 45.9957C60.9466 44.328 60.1128 43.4941 59.0766 43.4941C58.0404 43.4941 57.2065 44.328 55.5388 45.9957C54.538 46.9965 53.5463 47.4611 52.1196 47.4611C50.8738 47.4611 49.1014 47.2195 48.1279 48.2012C47.162 49.1752 47.4025 50.9403 47.4025 52.1781C47.4025 53.6049 46.9379 54.5966 45.9371 55.5974C44.2694 57.2651 43.4356 58.0989 43.4355 59.1352C43.4356 60.1712 44.2694 61.0052 45.9371 62.6729C47.0583 63.794 47.4025 64.5179 47.4025 66.0921C47.4025 67.3379 47.1609 69.1104 48.1427 70.0839C49.1166 71.0497 50.8817 70.8092 52.1195 70.8092C53.639 70.8092 54.3706 71.1063 55.455 72.1907C56.3783 73.1142 57.6162 74.7762 59.0766 74.7762C60.537 74.7762 61.7748 73.1142 62.6981 72.1907C63.7825 71.1063 64.5142 70.8092 66.0335 70.8092C67.2714 70.8092 69.0365 71.0497 70.0104 70.0839M70.0104 70.0839C70.9922 69.1104 70.7506 67.3379 70.7506 66.0921C70.7506 64.5179 71.0948 63.794 72.216 62.6729C73.8838 61.0052 74.7176 60.1712 74.7176 59.1352C74.7176 58.0989 73.8838 57.2651 72.216 55.5974M70.0104 70.0839H70.0253" stroke="white" stroke-width="1.75962" stroke-linecap="round" stroke-linejoin="round"/>
<path d="M52.8203 56.4882C52.8203 56.4882 56.3395 56.007 59.0767 62.2634C59.0767 62.2634 66.9892 46.6223 74.7177 43.4941" stroke="white" stroke-width="1.75962" stroke-linecap="round" stroke-linejoin="round"/>
<defs>
<linearGradient id="paint0_linear_818_5350" x1="10.076" y1="15.3432" x2="89.5148" y2="105.736" gradientUnits="userSpaceOnUse">
<stop stop-color="#0E156F"/>
<stop offset="1" stop-color="#8D0C91"/>
</linearGradient>
</defs>
</svg>
