<svg width="40" height="40" viewBox="0 0 40 40" fill="none" xmlns="http://www.w3.org/2000/svg">
<path d="M20 18.3333C19.5278 18.3333 19.1319 18.1736 18.8125 17.8542C18.4931 17.5347 18.3333 17.1389 18.3333 16.6667C18.3333 16.1944 18.4931 15.7986 18.8125 15.4792C19.1319 15.1597 19.5278 15 20 15C20.4722 15 20.8681 15.1597 21.1875 15.4792C21.5069 15.7986 21.6667 16.1944 21.6667 16.6667C21.6667 17.1389 21.5069 17.5347 21.1875 17.8542C20.8681 18.1736 20.4722 18.3333 20 18.3333ZM26.6667 18.3333C26.1944 18.3333 25.7986 18.1736 25.4792 17.8542C25.1597 17.5347 25 17.1389 25 16.6667C25 16.1944 25.1597 15.7986 25.4792 15.4792C25.7986 15.1597 26.1944 15 26.6667 15C27.1389 15 27.5347 15.1597 27.8542 15.4792C28.1736 15.7986 28.3333 16.1944 28.3333 16.6667C28.3333 17.1389 28.1736 17.5347 27.8542 17.8542C27.5347 18.1736 27.1389 18.3333 26.6667 18.3333ZM33.3333 18.3333C32.8611 18.3333 32.4653 18.1736 32.1458 17.8542C31.8264 17.5347 31.6667 17.1389 31.6667 16.6667C31.6667 16.1944 31.8264 15.7986 32.1458 15.4792C32.4653 15.1597 32.8611 15 33.3333 15C33.8056 15 34.2014 15.1597 34.5208 15.4792C34.8403 15.7986 35 16.1944 35 16.6667C35 17.1389 34.8403 17.5347 34.5208 17.8542C34.2014 18.1736 33.8056 18.3333 33.3333 18.3333ZM33.25 35C29.7778 35 26.3472 34.2431 22.9583 32.7292C19.5694 31.2153 16.4861 29.0694 13.7083 26.2917C10.9306 23.5139 8.78472 20.4306 7.27083 17.0417C5.75694 13.6528 5 10.2222 5 6.75C5 6.25 5.16667 5.83333 5.5 5.5C5.83333 5.16667 6.25 5 6.75 5H13.5C13.8889 5 14.2361 5.13194 14.5417 5.39583C14.8472 5.65972 15.0278 5.97222 15.0833 6.33333L16.1667 12.1667C16.2222 12.6111 16.2083 12.9861 16.125 13.2917C16.0417 13.5972 15.8889 13.8611 15.6667 14.0833L11.625 18.1667C12.1806 19.1944 12.8403 20.1875 13.6042 21.1458C14.3681 22.1042 15.2083 23.0278 16.125 23.9167C16.9861 24.7778 17.8889 25.5764 18.8333 26.3125C19.7778 27.0486 20.7778 27.7222 21.8333 28.3333L25.75 24.4167C26 24.1667 26.3264 23.9792 26.7292 23.8542C27.1319 23.7292 27.5278 23.6944 27.9167 23.75L33.6667 24.9167C34.0556 25.0278 34.375 25.2292 34.625 25.5208C34.875 25.8125 35 26.1389 35 26.5V33.25C35 33.75 34.8333 34.1667 34.5 34.5C34.1667 34.8333 33.75 35 33.25 35ZM10.0417 15L12.7917 12.25L12.0833 8.33333H8.375C8.51389 9.47222 8.70833 10.5972 8.95833 11.7083C9.20833 12.8194 9.56944 13.9167 10.0417 15ZM24.9583 29.9167C26.0417 30.3889 27.1458 30.7639 28.2708 31.0417C29.3958 31.3194 30.5278 31.5 31.6667 31.5833V27.9167L27.75 27.125L24.9583 29.9167Z" fill="black"/>
</svg>
