<svg width="24" height="24" viewBox="0 0 24 24" fill="none" xmlns="http://www.w3.org/2000/svg">
<path d="M18 8C18 6.4087 17.1252 5.12522 16 4C14.8748 2.87478 13.5913 2 12 2C10.4087 2 9.12522 2.87478 8 4C6.87478 5.12522 6 6.4087 6 8C6 15 3 17 3 17H21C21 17 18 15 18 8Z" stroke="#C4C4C4" stroke-width="2" stroke-linecap="round" stroke-linejoin="round"/>
<path d="M13 21C12.8476 21.2821 12.2633 21.8372 12 22C11.7367 22.1628 12.3038 22 12 22C11.6962 22 11.2633 22.1628 11 22C10.7367 21.8372 10.1524 21.2821 10 21" stroke="#C4C4C4" stroke-width="2" stroke-linecap="round" stroke-linejoin="round"/>
</svg>
