<svg width="40" height="40" viewBox="0 0 40 40" fill="none" xmlns="http://www.w3.org/2000/svg">
<g clip-path="url(#clip0_256_27268)">
<path d="M6.34992 10.4667C4.44992 13.1667 3.33325 16.45 3.33325 20C3.33325 23.55 4.44992 26.8333 6.34992 29.5333C10.3833 28.25 13.3333 24.4667 13.3333 20C13.3333 15.5333 10.3833 11.75 6.34992 10.4667Z" fill="#0FB5B5"/>
<path d="M33.6498 10.4667C29.6165 11.75 26.6665 15.5333 26.6665 20C26.6665 24.4667 29.6165 28.25 33.6498 29.5333C35.5498 26.8333 36.6665 23.55 36.6665 20C36.6665 16.45 35.5498 13.1667 33.6498 10.4667Z" fill="#0FB5B5"/>
<path d="M23.3334 20C23.3334 14.5333 26.6167 9.85001 31.3167 7.78334C28.35 5.03334 24.3834 3.33334 20 3.33334C15.6167 3.33334 11.65 5.03334 8.68335 7.78334C13.3833 9.85001 16.6667 14.5333 16.6667 20C16.6667 25.4667 13.3833 30.15 8.68335 32.2167C11.65 34.9667 15.6167 36.6667 20 36.6667C24.3834 36.6667 28.35 34.9667 31.3167 32.2167C26.6167 30.15 23.3334 25.4667 23.3334 20Z" fill="#0FB5B5"/>
</g>
<defs>
<clipPath id="clip0_256_27268">
<rect width="40" height="40" fill="white"/>
</clipPath>
</defs>
</svg>
