<svg width="40" height="40" viewBox="0 0 40 40" fill="none" xmlns="http://www.w3.org/2000/svg">
<path d="M28.25 6.67834C28.5536 6.364 28.7216 5.943 28.7178 5.50601C28.714 5.06901 28.5387 4.65099 28.2297 4.34198C27.9207 4.03296 27.5027 3.85768 27.0657 3.85388C26.6287 3.85009 26.2077 4.01808 25.8933 4.32167L19.41 10.8033C19.2537 10.9596 19.0418 11.0473 18.8208 11.0473C18.5999 11.0473 18.3879 10.9596 18.2317 10.8033L14.1067 6.67834C13.7911 6.38203 13.3727 6.2201 12.9399 6.22682C12.5071 6.23354 12.0938 6.40838 11.7877 6.71436C11.4815 7.02033 11.3063 7.43342 11.2993 7.86622C11.2923 8.29903 11.4539 8.71759 11.75 9.03334L14.1067 11.39C14.2017 11.485 14.3 11.5767 14.3983 11.665H8.33333C7.44928 11.665 6.60143 12.0162 5.97631 12.6413C5.35119 13.2664 5 14.1143 5 14.9983V31.665C5 32.5491 5.35119 33.3969 5.97631 34.022C6.60143 34.6472 7.44928 34.9983 8.33333 34.9983H31.6667C32.5507 34.9983 33.3986 34.6472 34.0237 34.022C34.6488 33.3969 35 32.5491 35 31.665V15C35 14.116 34.6488 13.2681 34.0237 12.643C33.3986 12.0179 32.5507 11.6667 31.6667 11.6667H23.245C23.3441 11.5776 23.4408 11.4859 23.535 11.3917L28.25 6.67834Z" fill="#BDBD14"/>
</svg>
