<svg width="240" height="239" viewBox="0 0 240 239" fill="none" xmlns="http://www.w3.org/2000/svg">
<path d="M120 170.489C165.122 170.489 201.7 156.14 201.7 138.439C201.7 120.738 165.122 106.389 120 106.389C74.8782 106.389 38.2997 120.738 38.2997 138.439C38.2997 156.14 74.8782 170.489 120 170.489Z" fill="#F9FAFB"/>
<path d="M201.406 59.8672L192.902 127.436C192.643 129.496 191.229 131.224 189.264 131.89L129.755 152.008V130.804L177.531 94.6882L188.356 53.7749H196.031C199.291 53.7749 201.813 56.6341 201.406 59.8672Z" fill="#D0D5DD"/>
<path d="M129.755 152.509C129.653 152.509 129.551 152.478 129.465 152.416C129.335 152.323 129.257 152.172 129.257 152.011V130.806C129.257 130.649 129.33 130.503 129.454 130.41L177.095 94.3961L187.876 53.6489C187.934 53.4298 188.131 53.2793 188.359 53.2793H196.033C197.731 53.2793 199.346 54.0096 200.468 55.282C201.59 56.5545 202.112 58.2496 201.9 59.9315L193.395 127.5C193.114 129.733 191.554 131.643 189.421 132.364L129.914 152.482C129.863 152.5 129.808 152.509 129.755 152.509ZM130.253 131.052V151.316L189.102 131.419C190.875 130.819 192.174 129.233 192.406 127.374L200.911 59.8053C201.088 58.4067 200.652 56.9971 199.72 55.9371C198.786 54.8793 197.443 54.2729 196.031 54.2729H188.739L178.013 94.8166C177.984 94.925 177.92 95.0202 177.832 95.0866L130.253 131.052Z" fill="#F9FAFB"/>
<path d="M129.757 130.805L68.9869 122.361L116.763 88.394L177.533 94.6877L129.757 130.805Z" fill="#D0D5DD"/>
<path d="M129.757 131.304C129.735 131.304 129.711 131.302 129.688 131.3L68.9182 122.857C68.7168 122.828 68.5509 122.68 68.5022 122.483C68.4535 122.284 68.5309 122.078 68.6969 121.959L116.473 87.9919C116.572 87.9211 116.692 87.8901 116.813 87.9034L177.584 94.1971C177.787 94.2192 177.958 94.3608 178.013 94.5578C178.068 94.7547 177.997 94.965 177.834 95.0889L130.058 131.204C129.969 131.269 129.863 131.304 129.757 131.304ZM70.2969 122.041L129.62 130.284L176.223 95.0557L116.897 88.9125L70.2969 122.041Z" fill="#F9FAFB"/>
<path d="M118.033 92.54L133.296 94.1223L118.028 92.54H118.033Z" fill="#D0D5DD"/>
<path d="M133.298 94.6202C133.28 94.6202 133.262 94.6202 133.247 94.618L117.98 93.0357C117.716 93.0091 117.519 92.779 117.533 92.5157C117.548 92.2346 117.803 92.0177 118.084 92.0465L133.349 93.6288C133.623 93.6575 133.82 93.901 133.793 94.1754C133.765 94.4277 133.548 94.6202 133.298 94.6202Z" fill="#F9FAFB"/>
<path d="M166.919 97.603L157.28 104.893L140.415 103.147L150.585 95.9146H150.588L166.919 97.603Z" fill="#D0D5DD"/>
<path d="M157.279 105.39C157.262 105.39 157.246 105.39 157.229 105.388L140.364 103.642C140.158 103.62 139.985 103.474 139.934 103.272C139.881 103.071 139.959 102.861 140.127 102.739L150.298 95.507C150.395 95.4362 150.521 95.4053 150.641 95.4185L166.972 97.1092C167.176 97.1314 167.346 97.273 167.402 97.47C167.457 97.6669 167.386 97.8771 167.222 98.0011L157.583 105.291C157.494 105.355 157.388 105.39 157.279 105.39ZM141.78 102.788L157.136 104.379L165.611 97.9701L150.722 96.4299L141.78 102.788Z" fill="#F9FAFB"/>
<path d="M123.123 101.354L112.947 108.591L97.6824 107.008L107.858 99.7764L123.123 101.354Z" fill="#D0D5DD"/>
<path d="M112.948 109.088C112.93 109.088 112.914 109.088 112.897 109.086L97.6317 107.504C97.4259 107.482 97.2532 107.336 97.2023 107.134C97.1492 106.933 97.2267 106.723 97.3949 106.601L107.57 99.3689C107.67 99.298 107.789 99.2671 107.909 99.2803L123.174 100.858C123.379 100.88 123.552 101.026 123.603 101.228C123.654 101.429 123.579 101.639 123.41 101.761L113.235 108.997C113.151 109.055 113.049 109.088 112.948 109.088ZM99.048 106.65L112.813 108.075L121.76 101.712L107.995 100.289L99.048 106.65Z" fill="#F9FAFB"/>
<path d="M112.947 108.59L102.772 115.824H102.77L87.5093 114.242L97.6823 107.008L112.947 108.59Z" fill="#D0D5DD"/>
<path d="M102.772 116.322C102.755 116.322 102.735 116.322 102.719 116.32L87.4586 114.738C87.2528 114.716 87.0801 114.569 87.0293 114.368C86.9761 114.167 87.0536 113.956 87.2218 113.835L97.3948 106.598C97.4944 106.528 97.6139 106.497 97.7356 106.51L113.001 108.092C113.206 108.114 113.379 108.26 113.43 108.462C113.483 108.663 113.406 108.873 113.237 108.995L103.064 116.231C102.978 116.291 102.876 116.322 102.772 116.322ZM88.8726 113.883L102.637 115.309L111.582 108.946L97.8174 107.521L88.8726 113.883Z" fill="#F9FAFB"/>
<path d="M147.64 112.181L137.998 119.471L120.062 117.614L130.239 110.378L147.64 112.181Z" fill="#D0D5DD"/>
<path d="M137.998 119.969C137.98 119.969 137.965 119.969 137.947 119.967L120.013 118.11C119.807 118.088 119.635 117.942 119.584 117.741C119.531 117.539 119.608 117.329 119.776 117.207L129.952 109.971C130.051 109.9 130.171 109.869 130.292 109.882L147.693 111.686C147.897 111.708 148.067 111.85 148.122 112.047C148.178 112.244 148.107 112.454 147.943 112.578L138.301 119.867C138.21 119.934 138.104 119.969 137.998 119.969ZM121.427 117.256L137.854 118.958L146.332 112.549L130.374 110.896L121.427 117.256Z" fill="#F9FAFB"/>
<path d="M137.998 119.471L128.487 126.661L110.797 124.202L120.062 117.614L137.998 119.471Z" fill="#D0D5DD"/>
<path d="M128.487 127.159C128.465 127.159 128.44 127.156 128.418 127.154L110.728 124.696C110.526 124.667 110.36 124.519 110.312 124.322C110.263 124.122 110.341 123.917 110.506 123.797L119.772 117.209C119.872 117.138 119.991 117.107 120.113 117.121L138.047 118.977C138.25 118.999 138.421 119.141 138.476 119.338C138.531 119.535 138.461 119.745 138.297 119.869L128.788 127.059C128.701 127.123 128.595 127.159 128.487 127.159ZM112.106 123.881L128.352 126.139L136.688 119.836L120.197 118.128L112.106 123.881Z" fill="#F9FAFB"/>
<path d="M120.062 117.614L110.796 124.202L94.2234 121.901L102.77 115.824H102.772L120.062 117.614Z" fill="#D0D5DD"/>
<path d="M110.796 124.7C110.774 124.7 110.75 124.698 110.728 124.696L94.1548 122.394C93.9534 122.366 93.7874 122.217 93.7387 122.02C93.6901 121.821 93.7675 121.615 93.9335 121.496L102.48 115.419C102.577 115.348 102.703 115.317 102.823 115.331L120.113 117.121C120.319 117.143 120.491 117.289 120.542 117.49C120.595 117.692 120.518 117.902 120.35 118.024L111.084 124.612C111 124.669 110.898 124.7 110.796 124.7ZM95.5335 121.58L110.668 123.682L118.697 117.973L102.905 116.338L95.5335 121.58Z" fill="#F9FAFB"/>
<path d="M102.77 115.824L94.2235 121.901L79.5958 119.868L87.5094 114.242L102.77 115.824Z" fill="#D0D5DD"/>
<path d="M94.2234 122.4C94.2012 122.4 94.1769 122.397 94.1548 122.395L79.5271 120.361C79.3257 120.333 79.1597 120.184 79.1111 119.987C79.0624 119.788 79.1398 119.582 79.3058 119.463L87.2171 113.838C87.3167 113.767 87.4362 113.736 87.5579 113.749L102.819 115.331C103.024 115.353 103.197 115.5 103.248 115.701C103.301 115.902 103.223 116.113 103.055 116.234L94.5089 122.311C94.427 122.369 94.3274 122.4 94.2234 122.4ZM80.9058 119.547L94.095 121.382L101.404 116.186L87.642 114.76L80.9058 119.547Z" fill="#F9FAFB"/>
<path d="M150.586 95.9141L133.3 94.1216L150.588 95.9097H150.592L166.919 97.6026L150.588 95.9141H150.586Z" fill="#D0D5DD"/>
<path d="M166.922 98.1008C166.904 98.1008 166.886 98.1008 166.871 98.0986L150.552 96.4101C150.548 96.4101 150.541 96.4101 150.537 96.4079L133.249 94.6154C132.975 94.5866 132.778 94.3432 132.804 94.0688C132.833 93.7944 133.077 93.5974 133.351 93.624L133.371 93.6262L150.628 95.4121C150.632 95.4121 150.639 95.4121 150.643 95.4143L166.973 97.1072C167.247 97.1359 167.444 97.3794 167.417 97.6538C167.389 97.9105 167.172 98.1008 166.922 98.1008Z" fill="#F9FAFB"/>
<path d="M116.548 88.3947L131.342 51.4736L188.356 53.7751L177.533 94.6906L116.548 88.3947Z" fill="#D0D5DD"/>
<path d="M177.533 95.1883C177.515 95.1883 177.499 95.1883 177.482 95.1861L116.497 88.8924C116.342 88.8769 116.203 88.7884 116.123 88.6556C116.041 88.5228 116.028 88.3591 116.088 88.213L130.881 51.292C130.959 51.0972 131.151 50.9711 131.364 50.9799L188.378 53.2814C188.529 53.2881 188.668 53.3611 188.759 53.4828C188.85 53.6045 188.879 53.7594 188.841 53.9055L178.017 94.8187C177.955 95.0378 177.756 95.1883 177.533 95.1883ZM117.256 87.9674L177.161 94.1504L187.717 54.2485L131.673 51.9868L117.256 87.9674Z" fill="#F9FAFB"/>
<path d="M121.777 86.1666L134.415 54.623L183.127 56.5882L173.879 91.5441L121.777 86.1666Z" fill="#F7F9FC"/>
<path d="M173.879 92.0421C173.861 92.0421 173.846 92.0421 173.828 92.0399L121.726 86.6602C121.571 86.6447 121.432 86.5561 121.352 86.4234C121.27 86.2906 121.257 86.1268 121.317 85.9808L133.955 54.4372C134.032 54.2425 134.225 54.1141 134.437 54.1252L183.149 56.0925C183.3 56.0991 183.439 56.1722 183.53 56.2939C183.621 56.4156 183.649 56.5705 183.609 56.7166L174.361 91.6703C174.302 91.8916 174.105 92.0421 173.879 92.0421ZM122.485 85.7374L173.507 91.0042L182.487 57.0618L134.747 55.1343L122.485 85.7374Z" fill="#F9FAFB"/>
<path d="M68.9869 122.361V143.566L129.755 152.011V130.804L68.9869 122.361Z" fill="#667185"/>
<path d="M129.755 152.509C129.733 152.509 129.708 152.506 129.686 152.504L68.9183 144.062C68.6727 144.028 68.489 143.816 68.489 143.568L68.4868 122.364C68.4868 122.22 68.5488 122.083 68.6572 121.987C68.7656 121.892 68.9095 121.85 69.0533 121.87L129.821 130.313C130.067 130.346 130.251 130.558 130.251 130.806V152.011C130.251 152.154 130.189 152.292 130.08 152.387C129.992 152.464 129.874 152.509 129.755 152.509ZM69.4849 143.132L129.257 151.437V131.238L69.4849 122.932V143.132Z" fill="#F9FAFB"/>
<path d="M122.726 137.651V140.377L75.2561 134.376V131.647L122.726 137.651Z" fill="#D0D5DD"/>
<path d="M123.224 140.942L74.7583 134.816V131.083L123.224 137.213V140.942ZM75.7541 133.938L122.229 139.813V138.089L75.7541 132.212V133.938Z" fill="#D0D5DD"/>
<path d="M22.1716 191.866C31.2514 189.554 40.3356 187.27 48.6608 182.815C57.0546 178.325 62.4144 171.737 65.0102 162.573C67.066 155.31 67.9689 147.702 72.1691 141.309C75.2119 136.677 79.9233 133.604 79.9233 133.604L118.812 138.521C114.76 142.871 111.274 147.831 108.267 152.945C105.512 157.63 103.047 162.025 101.632 167.32C100.192 172.715 99.3177 178.347 96.7153 183.353C94.1062 188.37 89.8839 192.409 85.1835 195.551C76.0639 201.648 65.3554 205.377 54.7951 208.065C54.7951 208.063 22.1716 191.866 22.1716 191.866Z" fill="#E4E7EC"/>
<path d="M54.7951 208.561C54.7199 208.561 54.6424 208.543 54.5738 208.51L21.9503 192.313C21.7644 192.22 21.6538 192.021 21.6759 191.815C21.698 191.607 21.8463 191.437 22.0477 191.386L22.3553 191.308C31.1518 189.069 40.2493 186.754 48.4262 182.379C56.7204 177.942 61.9894 171.42 64.5299 162.44C65.0544 160.588 65.5125 158.68 65.9529 156.833C67.2452 151.44 68.5796 145.863 71.7508 141.036C74.8158 136.371 79.4541 133.313 79.6489 133.187C79.7485 133.123 79.8658 133.094 79.983 133.11L118.871 138.027C119.057 138.051 119.214 138.175 119.276 138.352C119.341 138.527 119.301 138.724 119.172 138.861C115.481 142.824 111.956 147.649 108.694 153.199C105.91 157.937 103.494 162.279 102.11 167.45C101.752 168.789 101.424 170.17 101.106 171.504C100.136 175.57 99.1362 179.772 97.1534 183.585C94.7391 188.226 90.8044 192.393 85.4557 195.967C77.5355 201.262 67.8295 205.261 54.9124 208.549C54.877 208.556 54.8349 208.561 54.7951 208.561ZM23.5967 192.019L54.8504 207.536C67.5639 204.285 77.1173 200.344 84.9069 195.137C90.114 191.656 93.938 187.615 96.2727 183.123C98.1979 179.42 99.1849 175.278 100.141 171.272C100.46 169.931 100.792 168.544 101.152 167.191C102.566 161.898 105.016 157.494 107.84 152.692C110.947 147.408 114.293 142.769 117.796 138.894L80.0494 134.123C79.2329 134.685 75.2362 137.553 72.5873 141.585C69.5113 146.268 68.1968 151.758 66.9243 157.067C66.4795 158.924 66.0192 160.842 65.4903 162.712C62.8702 171.965 57.444 178.686 48.8976 183.258C40.922 187.52 32.1388 189.839 23.5967 192.019Z" fill="#F9FAFB"/>
<path d="M140.415 103.147L130.239 110.378L112.947 108.59L123.122 101.354L140.415 103.147Z" fill="#D0D5DD"/>
<path d="M130.239 110.876C130.222 110.876 130.206 110.876 130.188 110.874L112.896 109.084C112.691 109.062 112.518 108.916 112.467 108.714C112.414 108.513 112.491 108.303 112.66 108.181L122.835 100.945C122.934 100.874 123.054 100.843 123.176 100.856L140.468 102.649C140.673 102.671 140.846 102.817 140.897 103.018C140.948 103.219 140.873 103.43 140.704 103.551L130.529 110.783C130.443 110.845 130.341 110.876 130.239 110.876ZM114.31 108.23L130.102 109.865L139.049 103.505L123.257 101.867L114.31 108.23Z" fill="#F9FAFB"/>
<path d="M150.59 95.9142V95.9097H150.592" fill="#D0D5DD"/>
<path d="M150.59 96.4099C150.316 96.4099 150.092 96.1886 150.092 95.9142V95.912C150.092 95.6376 150.316 95.4141 150.59 95.4141C150.864 95.4141 151.09 95.6376 151.09 95.912C151.09 96.1134 150.971 96.286 150.8 96.3656C150.734 96.3944 150.663 96.4099 150.59 96.4099Z" fill="#F9FAFB"/>
<path d="M133.295 94.1218L123.122 101.354L107.857 99.7759L118.028 92.5396L133.295 94.1218Z" fill="#D0D5DD"/>
<path d="M123.122 101.852C123.105 101.852 123.089 101.852 123.071 101.849L107.806 100.272C107.601 100.249 107.428 100.103 107.377 99.9042C107.324 99.7028 107.401 99.4926 107.57 99.3709L117.74 92.1345C117.84 92.0637 117.96 92.0327 118.081 92.046L133.348 93.6282C133.554 93.6504 133.727 93.7964 133.778 93.9978C133.831 94.1992 133.753 94.4094 133.585 94.5311L123.412 101.763C123.326 101.818 123.226 101.852 123.122 101.852ZM109.223 99.4151L122.987 100.838L131.932 94.4802L118.165 93.0551L109.223 99.4151Z" fill="#F9FAFB"/>
<path d="M150.585 95.9141L140.415 103.146L123.123 101.354L133.296 94.1216H133.3L150.585 95.9141Z" fill="#D0D5DD"/>
<path d="M140.415 103.644C140.397 103.644 140.381 103.644 140.364 103.642L123.072 101.849C122.866 101.827 122.693 101.681 122.642 101.48C122.589 101.278 122.667 101.068 122.835 100.947L133.008 93.7146C133.105 93.6438 133.231 93.6128 133.351 93.626L150.638 95.4186C150.844 95.4407 151.017 95.5867 151.068 95.7881C151.121 95.9895 151.043 96.1997 150.875 96.3214L140.704 103.553C140.618 103.613 140.519 103.644 140.415 103.644ZM124.488 100.995L140.28 102.633L149.222 96.2728L133.433 94.6352L124.488 100.995Z" fill="#F9FAFB"/>
<path d="M157.28 104.893L147.64 112.182L130.24 110.378L140.415 103.146L157.28 104.893Z" fill="#D0D5DD"/>
<path d="M147.64 112.68C147.622 112.68 147.607 112.68 147.589 112.678L130.189 110.874C129.983 110.852 129.81 110.706 129.759 110.505C129.706 110.303 129.784 110.093 129.952 109.971L140.127 102.739C140.227 102.669 140.346 102.638 140.468 102.651L157.333 104.397C157.536 104.419 157.707 104.561 157.762 104.758C157.817 104.955 157.747 105.165 157.583 105.289L147.943 112.578C147.852 112.645 147.748 112.68 147.64 112.68ZM131.605 110.02L147.496 111.667L155.972 105.258L140.552 103.66L131.605 110.02Z" fill="#F9FAFB"/>
<path d="M130.24 110.378L120.062 117.615L102.772 115.825L112.947 108.59L130.24 110.378Z" fill="#D0D5DD"/>
<path d="M120.062 118.113C120.044 118.113 120.029 118.113 120.011 118.11L102.721 116.32C102.516 116.298 102.343 116.152 102.292 115.951C102.241 115.749 102.316 115.539 102.485 115.417L112.658 108.181C112.757 108.11 112.877 108.079 112.998 108.092L130.29 109.883C130.496 109.905 130.669 110.051 130.72 110.252C130.773 110.454 130.695 110.664 130.527 110.786L120.352 118.022C120.268 118.079 120.166 118.113 120.062 118.113ZM104.138 115.466L119.927 117.101L128.874 110.739L113.082 109.104L104.138 115.466Z" fill="#F9FAFB"/>
<path d="M170.245 64.4676C170.228 64.4676 170.208 64.4676 170.19 64.4654L143.811 62.8256C143.322 62.7946 142.953 62.3742 142.984 61.8873C143.015 61.3983 143.435 61.0265 143.922 61.0597L170.303 62.7017C170.792 62.7327 171.161 63.1531 171.13 63.64C171.099 64.1069 170.71 64.4676 170.245 64.4676Z" fill="#D0D5DD"/>
<path d="M167.557 71.0453C167.539 71.0453 167.519 71.0453 167.501 71.0431L141.121 69.4011C140.632 69.3701 140.262 68.9496 140.293 68.4628C140.324 67.9737 140.747 67.6041 141.231 67.6351L167.612 69.2771C168.101 69.3081 168.471 69.7286 168.44 70.2154C168.411 70.6824 168.022 71.0453 167.557 71.0453Z" fill="#D0D5DD"/>
<path d="M104.282 150.014C104.235 150.014 104.186 150.01 104.138 150.003L75.1125 145.252C74.63 145.172 74.3025 144.719 74.3822 144.236C74.4618 143.754 74.9155 143.426 75.3979 143.506L104.423 148.257C104.906 148.337 105.233 148.791 105.153 149.273C105.083 149.705 104.709 150.014 104.282 150.014Z" fill="#D0D5DD"/>
<path d="M101.827 155.14C101.781 155.14 101.737 155.135 101.69 155.129L72.8596 150.623C72.3772 150.548 72.0452 150.094 72.1227 149.612C72.1979 149.129 72.6516 148.798 73.134 148.875L101.964 153.381C102.447 153.456 102.779 153.909 102.701 154.392C102.633 154.828 102.254 155.14 101.827 155.14Z" fill="#D0D5DD"/>
<path d="M98.9924 160.821C98.9459 160.821 98.8994 160.816 98.8507 160.81L71.2639 156.399C70.7815 156.322 70.4518 155.868 70.5292 155.386C70.6067 154.903 71.0603 154.573 71.5428 154.651L99.1296 159.061C99.612 159.139 99.9417 159.592 99.8643 160.075C99.7957 160.511 99.4195 160.821 98.9924 160.821Z" fill="#D0D5DD"/>
<path d="M97.0561 166.501C97.0097 166.501 96.9632 166.497 96.9145 166.49L69.8013 162.157C69.3189 162.08 68.9891 161.626 69.0666 161.143C69.144 160.661 69.5977 160.331 70.0801 160.409L97.1933 164.742C97.6758 164.819 98.0055 165.273 97.928 165.755C97.8594 166.189 97.4832 166.501 97.0561 166.501Z" fill="#D0D5DD"/>
<path d="M164.868 77.6195C164.85 77.6195 164.83 77.6195 164.812 77.6173L138.432 75.9753C137.943 75.9443 137.573 75.5238 137.604 75.037C137.635 74.5479 138.056 74.1784 138.542 74.2093L164.923 75.8514C165.412 75.8823 165.782 76.3028 165.751 76.7896C165.722 77.2588 165.333 77.6195 164.868 77.6195Z" fill="#D0D5DD"/>
<path d="M162.179 84.1942C162.161 84.1942 162.141 84.1942 162.124 84.192L135.743 82.55C135.254 82.519 134.884 82.0985 134.915 81.6117C134.946 81.1226 135.367 80.7531 135.854 80.784L162.234 82.4261C162.723 82.457 163.093 82.8775 163.062 83.3644C163.033 83.8335 162.642 84.1942 162.179 84.1942Z" fill="#D0D5DD"/>
<path d="M210.898 74.5894L211.391 77.672C211.688 79.5198 212.956 80.9671 214.781 81.5381L217.829 82.4874L214.478 83.4368C212.473 84.0077 210.743 85.4528 209.855 87.3028L208.379 90.3855L207.884 87.3028C207.587 85.455 206.319 84.0077 204.493 83.4368L201.448 82.4874L204.796 81.5381C206.801 80.9671 208.532 79.522 209.419 77.672L210.898 74.5894Z" fill="#D0D5DD"/>
<path d="M114.242 62.4761L114.62 64.8395C114.848 66.2558 115.82 67.3667 117.221 67.8027L119.558 68.5307L116.988 69.261C115.45 69.697 114.125 70.8057 113.443 72.222L112.31 74.5876L111.932 72.222C111.704 70.8057 110.73 69.697 109.332 69.261L106.997 68.5307L109.564 67.8027C111.102 67.3667 112.427 66.2558 113.109 64.8395L114.242 62.4761Z" fill="#D0D5DD"/>
<path d="M178.071 139.111L178.281 140.43C178.409 141.218 178.951 141.837 179.73 142.081L181.032 142.488L179.602 142.895C178.743 143.138 178.004 143.758 177.626 144.546L176.995 145.865L176.785 144.546C176.657 143.758 176.117 143.138 175.338 142.895L174.036 142.488L175.468 142.081C176.327 141.837 177.064 141.218 177.442 140.43L178.071 139.111Z" fill="#D0D5DD"/>
<path d="M59.095 142.486L59.3053 143.803C59.4314 144.593 59.9736 145.21 60.7547 145.453L62.056 145.861L60.6264 146.268C59.7678 146.511 59.0286 147.131 58.6502 147.921L58.0195 149.238L57.8093 147.921C57.6854 147.131 57.141 146.513 56.362 146.268L55.0608 145.861L56.4904 145.453C57.349 145.212 58.0881 144.593 58.4643 143.803L59.095 142.486Z" fill="#D0D5DD"/>
</svg>
