<svg width="41" height="40" viewBox="0 0 41 40" fill="none" xmlns="http://www.w3.org/2000/svg">
<path d="M18.1417 2.52468C17.8328 2.52359 17.5228 2.5239 17.2121 2.52523C15.7162 2.53218 14.1964 2.57148 12.6637 2.62835L13.1071 4.57312C14.7033 4.39265 16.4532 4.25827 18.203 4.19109C19.151 4.15468 20.0932 4.13546 21.0071 4.14031C23.7489 4.1546 26.2365 4.38484 27.8641 5.01546L28.56 5.28531L28.2493 5.96382C25.9789 10.9236 25.4539 15.7085 25.8096 20.4034C25.9853 14.8316 28.3013 9.87601 31.3417 3.52304C27.2045 2.83554 22.7765 2.54007 18.1417 2.5246V2.52468ZM20.3319 5.55515C19.6491 5.5557 18.953 5.56952 18.257 5.59624C15.0014 5.72124 11.7571 6.10327 9.6426 6.54124C12.0046 10.9224 13.9153 15.3137 15.1491 19.5945C15.3026 19.5894 15.4562 19.5906 15.6096 19.598C15.9235 19.6134 16.2339 19.656 16.5373 19.7223C15.2814 15.7069 13.851 12.0035 12.0728 8.30577L11.671 7.47031L12.5839 7.30874C14.8774 6.90265 17.2446 6.74546 19.4975 6.74476C19.6477 6.74476 19.7975 6.74531 19.9466 6.74663C21.3782 6.75913 22.7578 6.8332 24.0361 6.94468L24.8997 7.02007L24.6478 7.84952C23.1869 12.6591 22.9007 17.8244 23.7267 22.7387C23.7405 22.7515 23.7544 22.7641 23.7678 22.777C24.0657 22.6726 24.3444 22.5662 24.6042 22.4525C23.9593 17.1873 24.245 11.7554 26.6533 6.10866C25.3094 5.76624 23.2607 5.58726 21.0096 5.55913C20.7837 5.55634 20.5578 5.55496 20.3319 5.55515ZM31.6557 6.1321C29.2373 11.2537 27.5196 15.3579 27.238 19.7886C28.8035 14.5697 31.8293 9.89132 35.2774 6.88562C34.0805 6.58707 32.8724 6.33571 31.6557 6.1321ZM8.6119 7.57968C7.14627 7.88187 5.71456 8.26546 4.32971 8.79546C5.00362 9.37984 6.2219 10.4669 7.70003 11.9118C8.38034 11.2116 9.07417 10.5198 9.79784 9.8907C9.41455 9.11425 9.01918 8.34382 8.6119 7.57968ZM19.7074 8.16421C18.6434 8.15905 17.5542 8.18952 16.461 8.26523C16.3464 9.33413 15.7142 10.3341 14.9591 11.3176C16.1646 14.1667 17.2058 17.0741 18.1432 20.1609C19.5787 20.5843 20.9989 21.0848 22.1494 21.6846C21.7221 18.3676 21.7805 14.9687 22.3353 11.6449C21.3287 10.6051 20.8043 9.45038 20.7623 8.18085C20.4107 8.17148 20.0591 8.16594 19.7074 8.16421ZM33.9276 10.2724C31.9956 12.5615 30.2932 15.4284 29.1331 18.5468C31.2631 15.5169 33.8823 13.1537 36.6703 11.4843C35.762 11.067 34.8477 10.663 33.9276 10.2724ZM10.4323 11.2067C9.29213 12.237 8.16557 13.4737 6.99237 14.6518C9.51495 16.1511 11.6635 17.9266 13.4163 19.9377C13.5251 19.8966 13.635 19.8597 13.7456 19.826C12.9254 17.006 11.8014 14.1203 10.4323 11.2067ZM28.6657 20.953C27.3846 22.4989 26.1786 23.3151 24.518 23.9662C24.7048 24.6866 24.4274 25.5135 23.7888 26.146C23.4132 26.518 22.9411 26.9419 22.251 27.2175C22.3505 27.2765 22.4522 27.3319 22.5557 27.3837C23.5216 27.8657 25.2281 27.7102 26.8135 26.9892C28.3939 26.2705 29.8058 25.0289 30.3291 23.7712C30.5914 23.0641 30.4041 22.6954 29.9449 22.1546C29.6181 21.7698 29.1407 21.3819 28.6657 20.953V20.953ZM15.3782 20.9987C14.5411 20.9911 13.691 21.2327 12.9884 21.7612C11.9892 22.513 11.2189 23.8537 11.212 26.1311V26.1467L11.2112 26.1623C10.9831 30.9577 11.3362 33.1701 12.0358 34.3705C12.6533 35.4301 13.6803 35.9373 15.1827 36.8701C15.2542 36.6821 15.3288 36.4509 15.3987 36.1593C15.5766 35.4172 15.7238 34.398 15.8171 33.2706C16.0037 31.0161 15.9764 28.3089 15.6643 26.3609L15.4994 25.3304L16.5163 25.5644C18.9862 26.1326 20.3991 26.1997 21.2194 26.055C22.0399 25.9101 22.3179 25.6235 22.7992 25.1469C23.2515 24.6991 23.2431 24.5379 23.1473 24.2859C23.0514 24.0337 22.6669 23.6183 22.0145 23.2208C20.7096 22.4258 18.4922 21.6887 16.4196 21.139C16.0797 21.049 15.7299 21.0019 15.3782 20.9987ZM30.1517 26.4219C29.3694 27.1839 28.4067 27.8094 27.3957 28.2693C25.7564 29.0148 23.9532 29.3558 22.4573 28.8594C21.9292 29.0559 21.6224 29.2818 21.4676 29.4687C21.2553 29.7253 21.242 29.9141 21.3139 30.1844C21.3858 30.4547 21.6003 30.7756 21.8654 31.0066C22.1305 31.2375 22.4456 31.3575 22.5653 31.3631C26.2211 31.5367 27.8033 30.4876 29.7745 29.2707C30.3493 28.9159 30.5693 28.197 30.5142 27.4792C30.4867 27.1203 30.3822 26.783 30.2617 26.5706C30.2317 26.5164 30.1947 26.4664 30.1517 26.4219ZM17.1683 27.1325C17.3814 29.0909 17.3849 31.3758 17.2185 33.3866C17.121 34.5641 16.9704 35.635 16.7662 36.487C16.6774 36.8578 16.5796 37.1866 16.4615 37.476L27.9222 36.9709C27.7928 36.4905 27.661 36.0081 27.5292 35.5255C27.0888 35.672 26.6388 35.7875 26.1823 35.8711L26.1857 35.9281L25.536 35.9686C25.136 36.0166 24.7195 36.043 24.2874 36.0461L17.7358 36.4531L17.9306 35.5463C18.5514 32.6552 18.6087 30.1097 18.2257 27.3249C17.872 27.2676 17.5194 27.2035 17.1682 27.1325H17.1683ZM19.6661 27.4984C19.9746 29.9932 19.9374 32.3742 19.4782 34.9359L20.9832 34.8425C20.7471 34.4942 20.585 34.1013 20.5066 33.688C20.4053 33.1505 20.4617 32.5522 20.8133 32.0575C20.8289 32.0355 20.8456 32.0145 20.8623 31.9934C20.4524 31.6148 20.1101 31.1291 19.9549 30.5462C19.7898 29.9255 19.8929 29.1657 20.3844 28.5719C20.5468 28.3759 20.7431 28.1988 20.9737 28.0394C20.7698 27.8769 20.591 27.7047 20.4367 27.5252C20.1973 27.5269 19.941 27.518 19.6661 27.4984ZM30.0307 30.7629C28.1982 31.8764 26.1392 32.9407 22.4986 32.7679C22.3798 32.7621 22.2617 32.746 22.1457 32.7198C22.0493 32.763 21.9979 32.818 21.9596 32.8719C21.8843 32.9778 21.8399 33.1688 21.8885 33.4276C21.986 33.9454 22.4764 34.5127 22.9331 34.5658C26.1663 34.9419 28.4002 33.8841 29.7566 32.6536C30.3816 32.0866 30.3869 31.7239 30.2949 31.3293C30.2488 31.1322 30.1472 30.9411 30.0307 30.7629ZM29.5085 34.5959C29.2915 34.7319 29.0687 34.8586 28.8408 34.9755C28.9697 35.4483 29.0989 35.921 29.2265 36.3938L30.7828 36.1148C30.3812 35.772 30.067 35.4152 29.8148 35.0604C29.7021 34.9019 29.6028 34.7478 29.5085 34.5959Z" fill="#053300"/>
</svg>
