<svg width="15" height="15" viewBox="0 0 15 15" fill="none" xmlns="http://www.w3.org/2000/svg">
<g clip-path="url(#clip0_223_26796)">
<path d="M10 9H9C9.61635 8.28302 10 7.01258 10 6C10 3.74214 8.25786 2 6 2C3.74214 2 2 3.74214 2 6C2 8.25786 3.74214 10 6 10C7.01258 10 8.28302 9.61635 9 9V10L12 13L13 12L10 9ZM6 9C4.43396 9 3 7.56604 3 6C3 4.43396 4.43396 3 6 3C7.56604 3 9 4.43396 9 6C9 7.56604 7.56604 9 6 9Z" fill="#C4C4C4"/>
</g>
<defs>
<clipPath id="clip0_223_26796">
<rect width="15" height="15" fill="white"/>
</clipPath>
</defs>
</svg>
