<svg width="32" height="32" viewBox="0 0 32 32" fill="none" xmlns="http://www.w3.org/2000/svg">
<path d="M24 18.6668V14.6668H20V12.0002H24V8.00016H26.6667V12.0002H30.6667V14.6668H26.6667V18.6668H24ZM12 16.0002C10.5334 16.0002 9.27782 15.4779 8.23337 14.4335C7.18893 13.3891 6.66671 12.1335 6.66671 10.6668C6.66671 9.20016 7.18893 7.94461 8.23337 6.90016C9.27782 5.85572 10.5334 5.3335 12 5.3335C13.4667 5.3335 14.7223 5.85572 15.7667 6.90016C16.8112 7.94461 17.3334 9.20016 17.3334 10.6668C17.3334 12.1335 16.8112 13.3891 15.7667 14.4335C14.7223 15.4779 13.4667 16.0002 12 16.0002ZM1.33337 26.6668V22.9335C1.33337 22.1779 1.52782 21.4835 1.91671 20.8502C2.3056 20.2168 2.82226 19.7335 3.46671 19.4002C4.84449 18.7113 6.24449 18.1946 7.66671 17.8502C9.08893 17.5057 10.5334 17.3335 12 17.3335C13.4667 17.3335 14.9112 17.5057 16.3334 17.8502C17.7556 18.1946 19.1556 18.7113 20.5334 19.4002C21.1778 19.7335 21.6945 20.2168 22.0834 20.8502C22.4723 21.4835 22.6667 22.1779 22.6667 22.9335V26.6668H1.33337ZM4.00004 24.0002H20V22.9335C20 22.6891 19.9389 22.4668 19.8167 22.2668C19.6945 22.0668 19.5334 21.9113 19.3334 21.8002C18.1334 21.2002 16.9223 20.7502 15.7 20.4502C14.4778 20.1502 13.2445 20.0002 12 20.0002C10.7556 20.0002 9.52226 20.1502 8.30004 20.4502C7.07782 20.7502 5.86671 21.2002 4.66671 21.8002C4.46671 21.9113 4.3056 22.0668 4.18337 22.2668C4.06115 22.4668 4.00004 22.6891 4.00004 22.9335V24.0002ZM12 13.3335C12.7334 13.3335 13.3612 13.0724 13.8834 12.5502C14.4056 12.0279 14.6667 11.4002 14.6667 10.6668C14.6667 9.9335 14.4056 9.30572 13.8834 8.7835C13.3612 8.26127 12.7334 8.00016 12 8.00016C11.2667 8.00016 10.6389 8.26127 10.1167 8.7835C9.59449 9.30572 9.33337 9.9335 9.33337 10.6668C9.33337 11.4002 9.59449 12.0279 10.1167 12.5502C10.6389 13.0724 11.2667 13.3335 12 13.3335Z" fill="#173C68"/>
</svg>
