<svg width="32" height="32" viewBox="0 0 32 32" fill="none" xmlns="http://www.w3.org/2000/svg">
<path d="M24 18.6666V14.6666H20V11.9999H24V7.99992H26.6667V11.9999H30.6667V14.6666H26.6667V18.6666H24ZM12 15.9999C10.5334 15.9999 9.27782 15.4777 8.23337 14.4333C7.18893 13.3888 6.66671 12.1333 6.66671 10.6666C6.66671 9.19992 7.18893 7.94436 8.23337 6.89992C9.27782 5.85547 10.5334 5.33325 12 5.33325C13.4667 5.33325 14.7223 5.85547 15.7667 6.89992C16.8112 7.94436 17.3334 9.19992 17.3334 10.6666C17.3334 12.1333 16.8112 13.3888 15.7667 14.4333C14.7223 15.4777 13.4667 15.9999 12 15.9999ZM1.33337 26.6666V22.9333C1.33337 22.1777 1.52782 21.4833 1.91671 20.8499C2.3056 20.2166 2.82226 19.7333 3.46671 19.3999C4.84449 18.711 6.24449 18.1944 7.66671 17.8499C9.08893 17.5055 10.5334 17.3333 12 17.3333C13.4667 17.3333 14.9112 17.5055 16.3334 17.8499C17.7556 18.1944 19.1556 18.711 20.5334 19.3999C21.1778 19.7333 21.6945 20.2166 22.0834 20.8499C22.4723 21.4833 22.6667 22.1777 22.6667 22.9333V26.6666H1.33337ZM4.00004 23.9999H20V22.9333C20 22.6888 19.9389 22.4666 19.8167 22.2666C19.6945 22.0666 19.5334 21.911 19.3334 21.7999C18.1334 21.1999 16.9223 20.7499 15.7 20.4499C14.4778 20.1499 13.2445 19.9999 12 19.9999C10.7556 19.9999 9.52226 20.1499 8.30004 20.4499C7.07782 20.7499 5.86671 21.1999 4.66671 21.7999C4.46671 21.911 4.3056 22.0666 4.18337 22.2666C4.06115 22.4666 4.00004 22.6888 4.00004 22.9333V23.9999ZM12 13.3333C12.7334 13.3333 13.3612 13.0721 13.8834 12.5499C14.4056 12.0277 14.6667 11.3999 14.6667 10.6666C14.6667 9.93325 14.4056 9.30547 13.8834 8.78325C13.3612 8.26103 12.7334 7.99992 12 7.99992C11.2667 7.99992 10.6389 8.26103 10.1167 8.78325C9.59449 9.30547 9.33337 9.93325 9.33337 10.6666C9.33337 11.3999 9.59449 12.0277 10.1167 12.5499C10.6389 13.0721 11.2667 13.3333 12 13.3333Z" fill="#173C68"/>
</svg>
