<svg width="41" height="40" viewBox="0 0 41 40" fill="none" xmlns="http://www.w3.org/2000/svg">
<g clip-path="url(#clip0_256_27251)">
<path d="M12.615 5.18332C14.2384 3.55999 16.9767 4.61666 17.1567 6.83499L17.1667 7.06832V33.3333C17.1664 33.9753 16.9191 34.5926 16.476 35.0573C16.033 35.522 15.4281 35.7983 14.7868 35.8292C14.1455 35.8601 13.517 35.643 13.0314 35.223C12.5457 34.8031 12.2403 34.2124 12.1784 33.5733L12.1667 33.3333V12.7017L9.76669 15.1017C9.31371 15.5563 8.70326 15.8193 8.06173 15.8362C7.42019 15.8532 6.79671 15.6227 6.32037 15.1927C5.84404 14.7626 5.55134 14.1658 5.50287 13.5259C5.45441 12.886 5.65389 12.2519 6.06002 11.755L6.23169 11.565L12.615 5.18332ZM26.3334 4.16666C26.9548 4.16669 27.554 4.39819 28.0141 4.81602C28.4741 5.23385 28.762 5.80806 28.8217 6.42666L28.8334 6.66666V27.2983L31.2334 24.8983C31.6863 24.4437 32.2968 24.1807 32.9383 24.1638C33.5799 24.1468 34.2033 24.3772 34.6797 24.8073C35.156 25.2374 35.4487 25.8342 35.4972 26.4741C35.5456 27.114 35.3461 27.7481 34.94 28.245L34.7684 28.435L28.385 34.8167C26.7617 36.44 24.0234 35.3833 23.8434 33.165L23.8334 32.9317V6.66666C23.8334 6.00362 24.0967 5.36773 24.5656 4.89889C25.0344 4.43005 25.6703 4.16666 26.3334 4.16666Z" fill="#7540EE"/>
</g>
<defs>
<clipPath id="clip0_256_27251">
<rect width="40" height="40" fill="white" transform="translate(0.5)"/>
</clipPath>
</defs>
</svg>
