<svg width="36" height="36" viewBox="0 0 36 36" fill="none" xmlns="http://www.w3.org/2000/svg">
<circle cx="18" cy="18" r="18" fill="#0BC2FF"/>
<g clip-path="url(#clip0_310_4188)">
<path d="M25.5 23V23.8333C25.5 24.75 24.75 25.5 23.8333 25.5H12.1667C11.2417 25.5 10.5 24.75 10.5 23.8333V12.1667C10.5 11.25 11.2417 10.5 12.1667 10.5H23.8333C24.75 10.5 25.5 11.25 25.5 12.1667V13H18C17.075 13 16.3333 13.75 16.3333 14.6667V21.3333C16.3333 22.25 17.075 23 18 23H25.5ZM18 21.3333H26.3333V14.6667H18V21.3333ZM21.3333 19.25C20.6417 19.25 20.0833 18.6917 20.0833 18C20.0833 17.3083 20.6417 16.75 21.3333 16.75C22.025 16.75 22.5833 17.3083 22.5833 18C22.5833 18.6917 22.025 19.25 21.3333 19.25Z" fill="white"/>
</g>
<defs>
<clipPath id="clip0_310_4188">
<rect width="20" height="20" fill="white" transform="translate(8 8)"/>
</clipPath>
</defs>
</svg>
