<svg width="37" height="36" viewBox="0 0 37 36" fill="none" xmlns="http://www.w3.org/2000/svg">
<circle cx="18.6666" cy="18" r="18" fill="#FF547D"/>
<path d="M21.279 7.60204C21.0869 7.44627 20.8647 7.33177 20.6264 7.26567C20.3881 7.19957 20.1387 7.1833 19.8938 7.21786C19.6489 7.25243 19.4137 7.3371 19.203 7.46658C18.9923 7.59606 18.8105 7.76758 18.669 7.97044L15.0186 13.1988H16.4826L19.6506 8.65684C19.6978 8.58907 19.7585 8.53177 19.8288 8.48854C19.8992 8.4453 19.9777 8.41705 20.0595 8.40556C20.1413 8.39407 20.2245 8.39959 20.3041 8.42176C20.3836 8.44394 20.4578 8.4823 20.5218 8.53444L21.4914 9.32164L18.8106 13.1988H20.2698L22.425 10.0788L24.4458 11.7192C24.5635 11.815 24.6406 11.9517 24.6616 12.102C24.6825 12.2523 24.6457 12.405 24.5586 12.5292L24.0906 13.1988H25.5546C25.809 12.8258 25.914 12.3708 25.8486 11.924C25.7833 11.4773 25.5524 11.0714 25.2018 10.7868L21.2778 7.60204H21.279ZM12.0666 12C11.5892 12 11.1314 12.1897 10.7938 12.5272C10.4562 12.8648 10.2666 13.3227 10.2666 13.8V23.4C10.2666 24.1957 10.5827 24.9588 11.1453 25.5214C11.7079 26.084 12.471 26.4 13.2666 26.4H24.6666C25.3031 26.4 25.9136 26.1472 26.3637 25.6971C26.8137 25.247 27.0666 24.6366 27.0666 24V16.8C27.0666 16.1635 26.8137 15.5531 26.3637 15.103C25.9136 14.6529 25.3031 14.4 24.6666 14.4H12.0666C11.9075 14.4 11.7549 14.3368 11.6423 14.2243C11.5298 14.1118 11.4666 13.9592 11.4666 13.8C11.4666 13.6409 11.5298 13.4883 11.6423 13.3758C11.7549 13.2633 11.9075 13.2 12.0666 13.2H13.8294L14.6694 12H12.0666ZM22.8666 20.4H24.0666C24.2257 20.4 24.3783 20.4633 24.4909 20.5758C24.6034 20.6883 24.6666 20.8409 24.6666 21C24.6666 21.1592 24.6034 21.3118 24.4909 21.4243C24.3783 21.5368 24.2257 21.6 24.0666 21.6H22.8666C22.7075 21.6 22.5549 21.5368 22.4423 21.4243C22.3298 21.3118 22.2666 21.1592 22.2666 21C22.2666 20.8409 22.3298 20.6883 22.4423 20.5758C22.5549 20.4633 22.7075 20.4 22.8666 20.4Z" fill="white"/>
</svg>
