<?xml version="1.0" encoding="UTF-8"?>
<!DOCTYPE svg PUBLIC "-//W3C//DTD SVG 1.1//EN" "http://www.w3.org/Graphics/SVG/1.1/DTD/svg11.dtd">
<!-- Creator: CorelDRAW -->
<svg xmlns="http://www.w3.org/2000/svg" xml:space="preserve" width="25.6632mm" height="23.6101mm" version="1.1" style="shape-rendering:geometricPrecision; text-rendering:geometricPrecision; image-rendering:optimizeQuality; fill-rule:evenodd; clip-rule:evenodd"
viewBox="0 0 57.75 53.13"
 xmlns:xlink="http://www.w3.org/1999/xlink"
 xmlns:xodm="http://www.corel.com/coreldraw/odm/2003">
 <defs>
  <style type="text/css">
   <![CDATA[
    .fil1 {fill:url(#id0)}
    .fil0 {fill:url(#id1)}
    .fil3 {fill:url(#id2)}
    .fil4 {fill:url(#id3)}
    .fil2 {fill:url(#id4)}
   ]]>
  </style>
  <linearGradient id="id0" gradientUnits="userSpaceOnUse" x1="8.15" y1="25.09" x2="20.11" y2="43.19">
   <stop offset="0" style="stop-opacity:1; stop-color:#0E156F"/>
   <stop offset="1" style="stop-opacity:1; stop-color:#8D0C91"/>
  </linearGradient>
  <linearGradient id="id1" gradientUnits="userSpaceOnUse" xlink:href="#id0" x1="7.34" y1="6.86" x2="38.86" y2="37.04">
  </linearGradient>
  <linearGradient id="id2" gradientUnits="userSpaceOnUse" xlink:href="#id0" x1="28.66" y1="21.52" x2="36.76" y2="29.38">
  </linearGradient>
  <linearGradient id="id3" gradientUnits="userSpaceOnUse" xlink:href="#id0" x1="23.2" y1="19.93" x2="49.43" y2="49.56">
  </linearGradient>
  <linearGradient id="id4" gradientUnits="userSpaceOnUse" xlink:href="#id0" x1="14.44" y1="37.89" x2="21.42" y2="51.11">
  </linearGradient>
 </defs>
 <g id="Layer_x0020_1">
  <metadata id="CorelCorpID_0Corel-Layer"/>
  <g id="_2050768077600">
   <path class="fil0" d="M44.8 28.5c-2.65,-11.26 -9.39,-20.96 -21.87,-28.5l-21.52 21.82c13.65,4.22 23.17,12.14 30.44,22.07 -1.66,-8.56 -9.25,-16.44 -22.47,-23.67l14.4 -14.95c9.51,5.57 16.56,13.27 21.02,23.22z"/>
   <path class="fil1" d="M5.07 25.09l2.93 1.1 -2.87 7.07c10.51,0.36 17.42,4.51 23.13,9.93 -6.3,-4.01 -15.03,-6.33 -28.26,-5.53l5.07 -12.56z"/>
   <path class="fil2" d="M6.43 38.82l2.33 -0.2 0.3 6.7c6.14,-2.77 12.8,-3.59 20.36,-0.93 -7.02,-0.49 -14.48,0.89 -22.83,6l-0.17 -11.56z"/>
   <circle class="fil3" cx="32.71" cy="25.45" r="5.64"/>
   <path class="fil4" d="M40.91 17.4c26.13,-5.68 14.96,13.54 11.5,18.46 -0.92,1.31 -3.75,4.96 -5.58,6.56 -8.94,7.85 -26.54,16.93 -31.94,4.83 12.16,8.38 29.12,-8.14 33.07,-13.88 3.08,-4.47 7.43,-16.76 -7.05,-15.97z"/>
  </g>
 </g>
</svg>
