<svg width="1510" height="982" viewBox="0 0 1510 982" fill="none" xmlns="http://www.w3.org/2000/svg">
<g opacity="0.08">
<rect x="9.41315" y="0.0932" width="93.0136" height="93.0136" stroke="#00BD7A" stroke-width="0.1864"/>
<rect x="102.613" y="0.0932" width="93.0136" height="93.0136" fill="url(#paint0_linear_347_3123)" stroke="#00BD7A" stroke-width="0.1864"/>
<rect x="195.813" y="0.0932" width="93.0136" height="93.0136" stroke="#00BD7A" stroke-width="0.1864"/>
<rect x="289.013" y="0.0932" width="93.0136" height="93.0136" stroke="#00BD7A" stroke-width="0.1864"/>
<rect x="382.213" y="0.0932" width="93.0136" height="93.0136" stroke="#00BD7A" stroke-width="0.1864"/>
<rect x="475.413" y="0.0932" width="93.0136" height="93.0136" stroke="#00BD7A" stroke-width="0.1864"/>
<rect x="568.613" y="0.0932" width="93.0136" height="93.0136" stroke="#00BD7A" stroke-width="0.1864"/>
<rect x="661.813" y="0.0932" width="93.0136" height="93.0136" stroke="#00BD7A" stroke-width="0.1864"/>
<rect x="755.013" y="0.0932" width="93.0136" height="93.0136" stroke="#00BD7A" stroke-width="0.1864"/>
<rect x="848.213" y="0.0932" width="93.0136" height="93.0136" stroke="#00BD7A" stroke-width="0.1864"/>
<rect x="941.413" y="0.0932" width="93.0136" height="93.0136" stroke="#00BD7A" stroke-width="0.1864"/>
<rect x="1034.61" y="0.0932" width="93.0136" height="93.0136" stroke="#00BD7A" stroke-width="0.1864"/>
<rect x="1127.81" y="0.0932" width="93.0136" height="93.0136" stroke="#00BD7A" stroke-width="0.1864"/>
<rect x="1221.01" y="0.0932" width="93.0136" height="93.0136" stroke="#00BD7A" stroke-width="0.1864"/>
<rect x="1314.21" y="0.0932" width="93.0136" height="93.0136" fill="url(#paint1_linear_347_3123)" stroke="#00BD7A" stroke-width="0.1864"/>
<rect x="1407.41" y="0.0932" width="93.0136" height="93.0136" stroke="#00BD7A" stroke-width="0.1864"/>
<rect x="9.41315" y="0.0932" width="1491.01" height="93.0136" stroke="#00BD7A" stroke-width="0.1864"/>
<rect x="9.41315" y="93.2924" width="93.0136" height="93.0136" stroke="#00BD7A" stroke-width="0.1864"/>
<rect x="102.613" y="93.2924" width="93.0136" height="93.0136" stroke="#00BD7A" stroke-width="0.1864"/>
<rect x="195.813" y="93.2924" width="93.0136" height="93.0136" fill="url(#paint2_linear_347_3123)" stroke="#00BD7A" stroke-width="0.1864"/>
<rect x="289.013" y="93.2924" width="93.0136" height="93.0136" stroke="#00BD7A" stroke-width="0.1864"/>
<rect x="382.213" y="93.2924" width="93.0136" height="93.0136" stroke="#00BD7A" stroke-width="0.1864"/>
<rect x="475.413" y="93.2924" width="93.0136" height="93.0136" stroke="#00BD7A" stroke-width="0.1864"/>
<rect x="568.613" y="93.2924" width="93.0136" height="93.0136" stroke="#00BD7A" stroke-width="0.1864"/>
<rect x="661.813" y="93.2924" width="93.0136" height="93.0136" stroke="#00BD7A" stroke-width="0.1864"/>
<rect x="755.013" y="93.2924" width="93.0136" height="93.0136" stroke="#00BD7A" stroke-width="0.1864"/>
<rect x="848.213" y="93.2924" width="93.0136" height="93.0136" stroke="#00BD7A" stroke-width="0.1864"/>
<rect x="941.413" y="93.2924" width="93.0136" height="93.0136" stroke="#00BD7A" stroke-width="0.1864"/>
<rect x="1034.61" y="93.2924" width="93.0136" height="93.0136" stroke="#00BD7A" stroke-width="0.1864"/>
<rect x="1127.81" y="93.2924" width="93.0136" height="93.0136" stroke="#00BD7A" stroke-width="0.1864"/>
<rect x="1221.01" y="93.2924" width="93.0136" height="93.0136" fill="url(#paint3_linear_347_3123)" stroke="#00BD7A" stroke-width="0.1864"/>
<rect x="1314.21" y="93.2924" width="93.0136" height="93.0136" stroke="#00BD7A" stroke-width="0.1864"/>
<rect x="1407.41" y="93.2924" width="93.0136" height="93.0136" stroke="#00BD7A" stroke-width="0.1864"/>
<rect x="9.41315" y="93.2924" width="1491.01" height="93.0136" stroke="#00BD7A" stroke-width="0.1864"/>
<rect x="9.41315" y="186.494" width="93.0136" height="93.0136" stroke="#00BD7A" stroke-width="0.1864"/>
<rect x="102.613" y="186.494" width="93.0136" height="93.0136" stroke="#00BD7A" stroke-width="0.1864"/>
<rect x="195.813" y="186.494" width="93.0136" height="93.0136" stroke="#00BD7A" stroke-width="0.1864"/>
<rect x="289.013" y="186.494" width="93.0136" height="93.0136" fill="url(#paint4_linear_347_3123)" stroke="#00BD7A" stroke-width="0.1864"/>
<rect x="382.213" y="186.494" width="93.0136" height="93.0136" stroke="#00BD7A" stroke-width="0.1864"/>
<rect x="475.413" y="186.494" width="93.0136" height="93.0136" stroke="#00BD7A" stroke-width="0.1864"/>
<rect x="568.613" y="186.494" width="93.0136" height="93.0136" stroke="#00BD7A" stroke-width="0.1864"/>
<rect x="661.813" y="186.494" width="93.0136" height="93.0136" stroke="#00BD7A" stroke-width="0.1864"/>
<rect x="755.013" y="186.494" width="93.0136" height="93.0136" stroke="#00BD7A" stroke-width="0.1864"/>
<rect x="848.213" y="186.494" width="93.0136" height="93.0136" stroke="#00BD7A" stroke-width="0.1864"/>
<rect x="941.413" y="186.494" width="93.0136" height="93.0136" stroke="#00BD7A" stroke-width="0.1864"/>
<rect x="1034.61" y="186.494" width="93.0136" height="93.0136" stroke="#00BD7A" stroke-width="0.1864"/>
<rect x="1127.81" y="186.494" width="93.0136" height="93.0136" fill="url(#paint5_linear_347_3123)" stroke="#00BD7A" stroke-width="0.1864"/>
<rect x="1221.01" y="186.494" width="93.0136" height="93.0136" stroke="#00BD7A" stroke-width="0.1864"/>
<rect x="1314.21" y="186.494" width="93.0136" height="93.0136" stroke="#00BD7A" stroke-width="0.1864"/>
<rect x="1407.41" y="186.494" width="93.0136" height="93.0136" stroke="#00BD7A" stroke-width="0.1864"/>
<rect x="9.41315" y="186.494" width="1491.01" height="93.0136" stroke="#00BD7A" stroke-width="0.1864"/>
<rect x="9.41315" y="279.693" width="93.0136" height="93.0136" stroke="#00BD7A" stroke-width="0.1864"/>
<rect x="102.613" y="279.693" width="93.0136" height="93.0136" stroke="#00BD7A" stroke-width="0.1864"/>
<rect x="195.813" y="279.693" width="93.0136" height="93.0136" stroke="#00BD7A" stroke-width="0.1864"/>
<rect x="289.013" y="279.693" width="93.0136" height="93.0136" stroke="#00BD7A" stroke-width="0.1864"/>
<rect x="382.213" y="279.693" width="93.0136" height="93.0136" fill="url(#paint6_linear_347_3123)" stroke="#00BD7A" stroke-width="0.1864"/>
<rect x="475.413" y="279.693" width="93.0136" height="93.0136" stroke="#00BD7A" stroke-width="0.1864"/>
<rect x="568.613" y="279.693" width="93.0136" height="93.0136" stroke="#00BD7A" stroke-width="0.1864"/>
<rect x="661.813" y="279.693" width="93.0136" height="93.0136" stroke="#00BD7A" stroke-width="0.1864"/>
<rect x="755.013" y="279.693" width="93.0136" height="93.0136" stroke="#00BD7A" stroke-width="0.1864"/>
<rect x="848.213" y="279.693" width="93.0136" height="93.0136" stroke="#00BD7A" stroke-width="0.1864"/>
<rect x="941.413" y="279.693" width="93.0136" height="93.0136" stroke="#00BD7A" stroke-width="0.1864"/>
<rect x="1034.61" y="279.693" width="93.0136" height="93.0136" fill="url(#paint7_linear_347_3123)" stroke="#00BD7A" stroke-width="0.1864"/>
<rect x="1127.81" y="279.693" width="93.0136" height="93.0136" stroke="#00BD7A" stroke-width="0.1864"/>
<rect x="1221.01" y="279.693" width="93.0136" height="93.0136" stroke="#00BD7A" stroke-width="0.1864"/>
<rect x="1314.21" y="279.693" width="93.0136" height="93.0136" stroke="#00BD7A" stroke-width="0.1864"/>
<rect x="1407.41" y="279.693" width="93.0136" height="93.0136" stroke="#00BD7A" stroke-width="0.1864"/>
<rect x="9.41315" y="279.693" width="1491.01" height="93.0136" stroke="#00BD7A" stroke-width="0.1864"/>
<rect x="9.41315" y="372.894" width="93.0136" height="93.0136" stroke="#00BD7A" stroke-width="0.1864"/>
<rect x="102.613" y="372.894" width="93.0136" height="93.0136" stroke="#00BD7A" stroke-width="0.1864"/>
<rect x="195.813" y="372.894" width="93.0136" height="93.0136" stroke="#00BD7A" stroke-width="0.1864"/>
<rect x="289.013" y="372.894" width="93.0136" height="93.0136" stroke="#00BD7A" stroke-width="0.1864"/>
<rect x="382.213" y="372.894" width="93.0136" height="93.0136" stroke="#00BD7A" stroke-width="0.1864"/>
<rect x="475.413" y="372.894" width="93.0136" height="93.0136" fill="url(#paint8_linear_347_3123)" stroke="#00BD7A" stroke-width="0.1864"/>
<rect x="568.613" y="372.894" width="93.0136" height="93.0136" stroke="#00BD7A" stroke-width="0.1864"/>
<rect x="661.813" y="372.894" width="93.0136" height="93.0136" stroke="#00BD7A" stroke-width="0.1864"/>
<rect x="755.013" y="372.894" width="93.0136" height="93.0136" stroke="#00BD7A" stroke-width="0.1864"/>
<rect x="848.213" y="372.894" width="93.0136" height="93.0136" stroke="#00BD7A" stroke-width="0.1864"/>
<rect x="941.413" y="372.894" width="93.0136" height="93.0136" fill="url(#paint9_linear_347_3123)" stroke="#00BD7A" stroke-width="0.1864"/>
<rect x="1034.61" y="372.894" width="93.0136" height="93.0136" stroke="#00BD7A" stroke-width="0.1864"/>
<rect x="1127.81" y="372.894" width="93.0136" height="93.0136" stroke="#00BD7A" stroke-width="0.1864"/>
<rect x="1221.01" y="372.894" width="93.0136" height="93.0136" stroke="#00BD7A" stroke-width="0.1864"/>
<rect x="1314.21" y="372.894" width="93.0136" height="93.0136" stroke="#00BD7A" stroke-width="0.1864"/>
<rect x="1407.41" y="372.894" width="93.0136" height="93.0136" stroke="#00BD7A" stroke-width="0.1864"/>
<rect x="9.41315" y="372.894" width="1491.01" height="93.0136" stroke="#00BD7A" stroke-width="0.1864"/>
<rect x="9.41315" y="466.093" width="93.0136" height="93.0136" stroke="#00BD7A" stroke-width="0.1864"/>
<rect x="102.613" y="466.093" width="93.0136" height="93.0136" stroke="#00BD7A" stroke-width="0.1864"/>
<rect x="195.813" y="466.093" width="93.0136" height="93.0136" stroke="#00BD7A" stroke-width="0.1864"/>
<rect x="289.013" y="466.093" width="93.0136" height="93.0136" stroke="#00BD7A" stroke-width="0.1864"/>
<rect x="382.213" y="466.093" width="93.0136" height="93.0136" stroke="#00BD7A" stroke-width="0.1864"/>
<rect x="475.413" y="466.093" width="93.0136" height="93.0136" stroke="#00BD7A" stroke-width="0.1864"/>
<rect x="568.613" y="466.093" width="93.0136" height="93.0136" fill="url(#paint10_linear_347_3123)" stroke="#00BD7A" stroke-width="0.1864"/>
<rect x="661.813" y="466.093" width="93.0136" height="93.0136" stroke="#00BD7A" stroke-width="0.1864"/>
<rect x="755.013" y="466.093" width="93.0136" height="93.0136" stroke="#00BD7A" stroke-width="0.1864"/>
<rect x="848.213" y="466.093" width="93.0136" height="93.0136" fill="url(#paint11_linear_347_3123)" stroke="#00BD7A" stroke-width="0.1864"/>
<rect x="941.413" y="466.093" width="93.0136" height="93.0136" stroke="#00BD7A" stroke-width="0.1864"/>
<rect x="1034.61" y="466.093" width="93.0136" height="93.0136" stroke="#00BD7A" stroke-width="0.1864"/>
<rect x="1127.81" y="466.093" width="93.0136" height="93.0136" stroke="#00BD7A" stroke-width="0.1864"/>
<rect x="1221.01" y="466.093" width="93.0136" height="93.0136" stroke="#00BD7A" stroke-width="0.1864"/>
<rect x="1314.21" y="466.093" width="93.0136" height="93.0136" stroke="#00BD7A" stroke-width="0.1864"/>
<rect x="1407.41" y="466.093" width="93.0136" height="93.0136" stroke="#00BD7A" stroke-width="0.1864"/>
<rect x="9.41315" y="466.093" width="1491.01" height="93.0136" stroke="#00BD7A" stroke-width="0.1864"/>
<rect x="9.41315" y="559.292" width="93.0136" height="93.0136" stroke="#00BD7A" stroke-width="0.1864"/>
<rect x="102.613" y="559.292" width="93.0136" height="93.0136" fill="url(#paint12_linear_347_3123)" stroke="#00BD7A" stroke-width="0.1864"/>
<rect x="195.813" y="559.292" width="93.0136" height="93.0136" stroke="#00BD7A" stroke-width="0.1864"/>
<rect x="289.013" y="559.292" width="93.0136" height="93.0136" stroke="#00BD7A" stroke-width="0.1864"/>
<rect x="382.213" y="559.292" width="93.0136" height="93.0136" stroke="#00BD7A" stroke-width="0.1864"/>
<rect x="475.413" y="559.292" width="93.0136" height="93.0136" stroke="#00BD7A" stroke-width="0.1864"/>
<rect x="568.613" y="559.292" width="93.0136" height="93.0136" stroke="#00BD7A" stroke-width="0.1864"/>
<rect x="661.813" y="559.292" width="93.0136" height="93.0136" fill="url(#paint13_linear_347_3123)" stroke="#00BD7A" stroke-width="0.1864"/>
<rect x="755.013" y="559.292" width="93.0136" height="93.0136" fill="url(#paint14_linear_347_3123)" stroke="#00BD7A" stroke-width="0.1864"/>
<rect x="848.213" y="559.292" width="93.0136" height="93.0136" stroke="#00BD7A" stroke-width="0.1864"/>
<rect x="941.413" y="559.292" width="93.0136" height="93.0136" stroke="#00BD7A" stroke-width="0.1864"/>
<rect x="1034.61" y="559.292" width="93.0136" height="93.0136" stroke="#00BD7A" stroke-width="0.1864"/>
<rect x="1127.81" y="559.292" width="93.0136" height="93.0136" stroke="#00BD7A" stroke-width="0.1864"/>
<rect x="1221.01" y="559.292" width="93.0136" height="93.0136" stroke="#00BD7A" stroke-width="0.1864"/>
<rect x="1314.21" y="559.292" width="93.0136" height="93.0136" fill="url(#paint15_linear_347_3123)" stroke="#00BD7A" stroke-width="0.1864"/>
<rect x="1407.41" y="559.292" width="93.0136" height="93.0136" stroke="#00BD7A" stroke-width="0.1864"/>
<rect x="9.41315" y="559.292" width="1491.01" height="93.0136" stroke="#00BD7A" stroke-width="0.1864"/>
<rect x="9.41315" y="652.494" width="93.0136" height="93.0136" stroke="#00BD7A" stroke-width="0.1864"/>
<rect x="102.613" y="652.494" width="93.0136" height="93.0136" stroke="#00BD7A" stroke-width="0.1864"/>
<rect x="195.813" y="652.494" width="93.0136" height="93.0136" stroke="#00BD7A" stroke-width="0.1864"/>
<rect x="289.013" y="652.494" width="93.0136" height="93.0136" stroke="#00BD7A" stroke-width="0.1864"/>
<rect x="382.213" y="652.494" width="93.0136" height="93.0136" stroke="#00BD7A" stroke-width="0.1864"/>
<rect x="475.413" y="652.494" width="93.0136" height="93.0136" stroke="#00BD7A" stroke-width="0.1864"/>
<rect x="568.613" y="652.494" width="93.0136" height="93.0136" fill="url(#paint16_linear_347_3123)" stroke="#00BD7A" stroke-width="0.1864"/>
<rect x="661.813" y="652.494" width="93.0136" height="93.0136" stroke="#00BD7A" stroke-width="0.1864"/>
<rect x="755.013" y="652.494" width="93.0136" height="93.0136" stroke="#00BD7A" stroke-width="0.1864"/>
<rect x="848.213" y="652.494" width="93.0136" height="93.0136" fill="url(#paint17_linear_347_3123)" stroke="#00BD7A" stroke-width="0.1864"/>
<rect x="941.413" y="652.494" width="93.0136" height="93.0136" stroke="#00BD7A" stroke-width="0.1864"/>
<rect x="1034.61" y="652.494" width="93.0136" height="93.0136" stroke="#00BD7A" stroke-width="0.1864"/>
<rect x="1127.81" y="652.494" width="93.0136" height="93.0136" stroke="#00BD7A" stroke-width="0.1864"/>
<rect x="1221.01" y="652.494" width="93.0136" height="93.0136" stroke="#00BD7A" stroke-width="0.1864"/>
<rect x="1314.21" y="652.494" width="93.0136" height="93.0136" stroke="#00BD7A" stroke-width="0.1864"/>
<rect x="1407.41" y="652.494" width="93.0136" height="93.0136" stroke="#00BD7A" stroke-width="0.1864"/>
<rect x="9.41315" y="652.494" width="1491.01" height="93.0136" stroke="#00BD7A" stroke-width="0.1864"/>
<rect x="9.41315" y="745.693" width="93.0136" height="93.0136" stroke="#00BD7A" stroke-width="0.1864"/>
<rect x="102.613" y="745.693" width="93.0136" height="93.0136" stroke="#00BD7A" stroke-width="0.1864"/>
<rect x="195.813" y="745.693" width="93.0136" height="93.0136" stroke="#00BD7A" stroke-width="0.1864"/>
<rect x="289.013" y="745.693" width="93.0136" height="93.0136" stroke="#00BD7A" stroke-width="0.1864"/>
<rect x="382.213" y="745.693" width="93.0136" height="93.0136" stroke="#00BD7A" stroke-width="0.1864"/>
<rect x="475.413" y="745.693" width="93.0136" height="93.0136" stroke="#00BD7A" stroke-width="0.1864"/>
<rect x="568.613" y="745.693" width="93.0136" height="93.0136" stroke="#00BD7A" stroke-width="0.1864"/>
<rect x="661.813" y="745.693" width="93.0136" height="93.0136" stroke="#00BD7A" stroke-width="0.1864"/>
<rect x="755.013" y="745.693" width="93.0136" height="93.0136" stroke="#00BD7A" stroke-width="0.1864"/>
<rect x="848.213" y="745.693" width="93.0136" height="93.0136" stroke="#00BD7A" stroke-width="0.1864"/>
<rect x="941.413" y="745.693" width="93.0136" height="93.0136" stroke="#00BD7A" stroke-width="0.1864"/>
<rect x="1034.61" y="745.693" width="93.0136" height="93.0136" stroke="#00BD7A" stroke-width="0.1864"/>
<rect x="1127.81" y="745.693" width="93.0136" height="93.0136" stroke="#00BD7A" stroke-width="0.1864"/>
<rect x="1221.01" y="745.693" width="93.0136" height="93.0136" stroke="#00BD7A" stroke-width="0.1864"/>
<rect x="1314.21" y="745.693" width="93.0136" height="93.0136" stroke="#00BD7A" stroke-width="0.1864"/>
<rect x="1407.41" y="745.693" width="93.0136" height="93.0136" stroke="#00BD7A" stroke-width="0.1864"/>
<rect x="9.41315" y="745.693" width="1491.01" height="93.0136" stroke="#00BD7A" stroke-width="0.1864"/>
<rect x="9.41315" y="838.894" width="93.0136" height="93.0136" stroke="#00BD7A" stroke-width="0.1864"/>
<rect x="102.613" y="838.894" width="93.0136" height="93.0136" stroke="#00BD7A" stroke-width="0.1864"/>
<rect x="195.813" y="838.894" width="93.0136" height="93.0136" stroke="#00BD7A" stroke-width="0.1864"/>
<rect x="289.013" y="838.894" width="93.0136" height="93.0136" stroke="#00BD7A" stroke-width="0.1864"/>
<rect x="382.213" y="838.894" width="93.0136" height="93.0136" stroke="#00BD7A" stroke-width="0.1864"/>
<rect x="475.413" y="838.894" width="93.0136" height="93.0136" stroke="#00BD7A" stroke-width="0.1864"/>
<rect x="568.613" y="838.894" width="93.0136" height="93.0136" stroke="#00BD7A" stroke-width="0.1864"/>
<rect x="661.813" y="838.894" width="93.0136" height="93.0136" stroke="#00BD7A" stroke-width="0.1864"/>
<rect x="755.013" y="838.894" width="93.0136" height="93.0136" stroke="#00BD7A" stroke-width="0.1864"/>
<rect x="848.213" y="838.894" width="93.0136" height="93.0136" stroke="#00BD7A" stroke-width="0.1864"/>
<rect x="941.413" y="838.894" width="93.0136" height="93.0136" stroke="#00BD7A" stroke-width="0.1864"/>
<rect x="1034.61" y="838.894" width="93.0136" height="93.0136" stroke="#00BD7A" stroke-width="0.1864"/>
<rect x="1127.81" y="838.894" width="93.0136" height="93.0136" stroke="#00BD7A" stroke-width="0.1864"/>
<rect x="1221.01" y="838.894" width="93.0136" height="93.0136" stroke="#00BD7A" stroke-width="0.1864"/>
<rect x="1314.21" y="838.894" width="93.0136" height="93.0136" stroke="#00BD7A" stroke-width="0.1864"/>
<rect x="1407.41" y="838.894" width="93.0136" height="93.0136" stroke="#00BD7A" stroke-width="0.1864"/>
<rect x="9.41315" y="838.894" width="1491.01" height="93.0136" stroke="#00BD7A" stroke-width="0.1864"/>
</g>
<defs>
<linearGradient id="paint0_linear_347_3123" x1="113.238" y1="1.1888e-07" x2="149.12" y2="93.2" gradientUnits="userSpaceOnUse">
<stop stop-color="#00BD7A"/>
<stop offset="1" stop-color="#D9D9D9" stop-opacity="0"/>
</linearGradient>
<linearGradient id="paint1_linear_347_3123" x1="1324.84" y1="1.1888e-07" x2="1360.72" y2="93.2" gradientUnits="userSpaceOnUse">
<stop stop-color="#00BD7A"/>
<stop offset="1" stop-color="#D9D9D9" stop-opacity="0"/>
</linearGradient>
<linearGradient id="paint2_linear_347_3123" x1="206.438" y1="93.1992" x2="242.32" y2="186.399" gradientUnits="userSpaceOnUse">
<stop stop-color="#00BD7A"/>
<stop offset="1" stop-color="#D9D9D9" stop-opacity="0"/>
</linearGradient>
<linearGradient id="paint3_linear_347_3123" x1="1231.64" y1="93.1992" x2="1267.52" y2="186.399" gradientUnits="userSpaceOnUse">
<stop stop-color="#00BD7A"/>
<stop offset="1" stop-color="#D9D9D9" stop-opacity="0"/>
</linearGradient>
<linearGradient id="paint4_linear_347_3123" x1="299.638" y1="186.4" x2="335.52" y2="279.6" gradientUnits="userSpaceOnUse">
<stop stop-color="#00BD7A"/>
<stop offset="1" stop-color="#D9D9D9" stop-opacity="0"/>
</linearGradient>
<linearGradient id="paint5_linear_347_3123" x1="1138.44" y1="186.4" x2="1174.32" y2="279.6" gradientUnits="userSpaceOnUse">
<stop stop-color="#00BD7A"/>
<stop offset="1" stop-color="#D9D9D9" stop-opacity="0"/>
</linearGradient>
<linearGradient id="paint6_linear_347_3123" x1="392.838" y1="279.6" x2="428.72" y2="372.8" gradientUnits="userSpaceOnUse">
<stop stop-color="#00BD7A"/>
<stop offset="1" stop-color="#D9D9D9" stop-opacity="0"/>
</linearGradient>
<linearGradient id="paint7_linear_347_3123" x1="1045.24" y1="279.6" x2="1081.12" y2="372.8" gradientUnits="userSpaceOnUse">
<stop stop-color="#00BD7A"/>
<stop offset="1" stop-color="#D9D9D9" stop-opacity="0"/>
</linearGradient>
<linearGradient id="paint8_linear_347_3123" x1="486.038" y1="372.801" x2="521.92" y2="466.001" gradientUnits="userSpaceOnUse">
<stop stop-color="#00BD7A"/>
<stop offset="1" stop-color="#D9D9D9" stop-opacity="0"/>
</linearGradient>
<linearGradient id="paint9_linear_347_3123" x1="952.038" y1="372.801" x2="987.92" y2="466.001" gradientUnits="userSpaceOnUse">
<stop stop-color="#00BD7A"/>
<stop offset="1" stop-color="#D9D9D9" stop-opacity="0"/>
</linearGradient>
<linearGradient id="paint10_linear_347_3123" x1="579.238" y1="466" x2="615.12" y2="559.2" gradientUnits="userSpaceOnUse">
<stop stop-color="#00BD7A"/>
<stop offset="1" stop-color="#D9D9D9" stop-opacity="0"/>
</linearGradient>
<linearGradient id="paint11_linear_347_3123" x1="858.838" y1="466" x2="894.72" y2="559.2" gradientUnits="userSpaceOnUse">
<stop stop-color="#00BD7A"/>
<stop offset="1" stop-color="#D9D9D9" stop-opacity="0"/>
</linearGradient>
<linearGradient id="paint12_linear_347_3123" x1="113.238" y1="559.199" x2="149.12" y2="652.399" gradientUnits="userSpaceOnUse">
<stop stop-color="#00BD7A"/>
<stop offset="1" stop-color="#D9D9D9" stop-opacity="0"/>
</linearGradient>
<linearGradient id="paint13_linear_347_3123" x1="672.438" y1="559.199" x2="708.32" y2="652.399" gradientUnits="userSpaceOnUse">
<stop stop-color="#00BD7A"/>
<stop offset="1" stop-color="#D9D9D9" stop-opacity="0"/>
</linearGradient>
<linearGradient id="paint14_linear_347_3123" x1="765.638" y1="559.199" x2="801.52" y2="652.399" gradientUnits="userSpaceOnUse">
<stop stop-color="#00BD7A"/>
<stop offset="1" stop-color="#D9D9D9" stop-opacity="0"/>
</linearGradient>
<linearGradient id="paint15_linear_347_3123" x1="1324.84" y1="559.199" x2="1360.72" y2="652.399" gradientUnits="userSpaceOnUse">
<stop stop-color="#00BD7A"/>
<stop offset="1" stop-color="#D9D9D9" stop-opacity="0"/>
</linearGradient>
<linearGradient id="paint16_linear_347_3123" x1="579.238" y1="652.4" x2="615.12" y2="745.6" gradientUnits="userSpaceOnUse">
<stop stop-color="#00BD7A"/>
<stop offset="1" stop-color="#D9D9D9" stop-opacity="0"/>
</linearGradient>
<linearGradient id="paint17_linear_347_3123" x1="858.838" y1="652.4" x2="894.72" y2="745.6" gradientUnits="userSpaceOnUse">
<stop stop-color="#00BD7A"/>
<stop offset="1" stop-color="#D9D9D9" stop-opacity="0"/>
</linearGradient>
</defs>
</svg>
